<?xml version="1.0" encoding="UTF-8"?>
<!DOCTYPE svg PUBLIC "-//W3C//DTD SVG 1.1//EN" "http://www.w3.org/Graphics/SVG/1.1/DTD/svg11.dtd">
<!-- Creator: CorelDRAW X5 -->
<svg xmlns="http://www.w3.org/2000/svg" xml:space="preserve" width="130px" height="130px" style="shape-rendering:geometricPrecision; text-rendering:geometricPrecision; image-rendering:optimizeQuality; fill-rule:evenodd; clip-rule:evenodd"
viewBox="0 0 130 130"
 xmlns:xlink="http://www.w3.org/1999/xlink">
 <defs>
  <style type="text/css">
   <![CDATA[
    .fil0 {fill:#112F36}
    .fil1 {fill:#1D5361}
    .fil3 {fill:white}
    .fil2 {fill:url(#id0)}
   ]]>
  </style>
  <linearGradient id="id0" gradientUnits="userSpaceOnUse" x1="64.3662" y1="113.322" x2="64.3662" y2="6.97437">
   <stop offset="0" style="stop-color:#00A8C6"/>
   <stop offset="0.301961" style="stop-color:#20B4C8"/>
   <stop offset="1" style="stop-color:#40C0CB"/>
  </linearGradient>
 </defs>
 <g id="Ebene_x0020_1">
  <metadata id="CorelCorpID_0Corel-Layer"/>
  <g id="_340229024">
   <path id="_340952632" class="fil0" d="M64.3662 6.97437l-53.6368 0c0.258142,48.9423 16.7339,95.2623 53.6368,120l0 -120z"/>
   <path id="_335953264" class="fil1" d="M64.3662 6.97437l53.6365 0c-0.258142,48.9423 -16.7335,95.2623 -53.6365,120l0 -120z"/>
   <path id="_340229240" class="fil2" d="M64.3662 6.97437l53.6365 0c-0.247937,47.0945 -18.1266,82.5442 -53.6365,106.348l0 -106.348zm0 0l-53.6368 0c0.248315,47.0945 18.127,82.5442 53.6368,106.348l0 -106.348z"/>
   <path id="_340228568" class="fil3" d="M67.3463 6.97437l10.3903 43.0228 35.3303 -3.96548c-1.58551,5.90741 -3.55465,11.5608 -5.90287,16.9637l-29.345 -5.32574 -13.4529 55.6532 0 -106.348 2.98016 0zm-2.98016 106.348l0 -106.348 -2.98054 0 -10.3911 43.0239 -35.3295 -3.96586c1.60706,5.98753 3.60832,11.7158 5.99963,17.1848l29.2502 -5.54004 13.4514 55.6457zm-46.1787 -53.0506c0.130016,0.438804 0.261544,0.877607 0.394961,1.31414 -0.133417,-0.436536 -0.264945,-0.874961 -0.394961,-1.31414z"/>
   <circle id="_340228544" class="fil0" cx="64.3661" cy="53.9777" r="13.9471"/>
  </g>
 </g>
</svg>
