<?xml version="1.0" encoding="UTF-8"?>
<!DOCTYPE svg PUBLIC "-//W3C//DTD SVG 1.1//EN" "http://www.w3.org/Graphics/SVG/1.1/DTD/svg11.dtd">
<!-- Creator: CorelDRAW X5 -->
<svg xmlns="http://www.w3.org/2000/svg" xml:space="preserve" width="380px" height="130px" style="shape-rendering:geometricPrecision; text-rendering:geometricPrecision; image-rendering:optimizeQuality; fill-rule:evenodd; clip-rule:evenodd"
viewBox="0 0 380 130"
 xmlns:xlink="http://www.w3.org/1999/xlink">
 <defs>
  <style type="text/css">
   <![CDATA[
    .fil0 {fill:#112F36}
    .fil1 {fill:#1D5361}
    .fil3 {fill:white}
    .fil4 {fill:white;fill-rule:nonzero}
    .fil2 {fill:url(#id0)}
   ]]>
  </style>
  <linearGradient id="id0" gradientUnits="userSpaceOnUse" x1="57.8661" y1="113.322" x2="57.8661" y2="6.97437">
   <stop offset="0" style="stop-color:#00A8C6"/>
   <stop offset="0.301961" style="stop-color:#20B4C8"/>
   <stop offset="1" style="stop-color:#40C0CB"/>
  </linearGradient>
 </defs>
 <g id="Ebene_x0020_1">
  <metadata id="CorelCorpID_0Corel-Layer"/>
  <g id="_340229024">
   <path id="_340952632" class="fil0" d="M57.8661 6.97437l-53.6368 0c0.258142,48.9423 16.7339,95.2623 53.6368,120l0 -120z"/>
   <path id="_335953264" class="fil1" d="M57.8661 6.97437l53.6364 0c-0.258142,48.9423 -16.7335,95.2623 -53.6364,120l0 -120z"/>
   <path id="_340229240" class="fil2" d="M57.8661 6.97437l53.6364 0c-0.247937,47.0945 -18.1266,82.5442 -53.6364,106.348l0 -106.348zm0 0l-53.6368 0c0.248315,47.0945 18.127,82.5442 53.6368,106.348l0 -106.348z"/>
   <path id="_340228568" class="fil3" d="M60.8463 6.97437l10.3903 43.0228 35.3303 -3.96548c-1.58551,5.90741 -3.55465,11.5608 -5.90287,16.9637l-29.345 -5.32574 -13.4529 55.6532 0 -106.348 2.98016 0zm-2.98016 106.348l0 -106.348 -2.98054 0 -10.3911 43.0239 -35.3295 -3.96586c1.60706,5.98753 3.60832,11.7158 5.99963,17.1848l29.2502 -5.54004 13.4513 55.6456zm-46.1787 -53.0506c0.130016,0.438803 0.261543,0.877607 0.394961,1.31414 -0.133417,-0.436536 -0.264945,-0.874961 -0.394961,-1.31414z"/>
   <circle id="_340228544" class="fil0" cx="57.866" cy="53.9777" r="13.9471"/>
  </g>
  <path class="fil4" d="M164.261 73.8252l-8.62149 0 0 13.1169 -6.83528 0 0 -42.1833 15.4568 0c9.56561,0 14.3486,4.72139 14.3486,14.1638 0,4.8446 -1.20076,8.53947 -3.60265,11.0846 -2.40151,2.54551 -5.98375,3.81808 -10.746,3.81808zm-8.62149 -5.91194l8.55988 0c4.92662,0 7.38974,-2.99679 7.38974,-8.99075 0,-2.87395 -0.595276,-4.96744 -1.78583,-6.2812 -1.19055,-1.31376 -3.0584,-1.97065 -5.60391,-1.97065l-8.55988 0 0 17.2426z"/>
  <path id="1" class="fil4" d="M207.183 65.6349l0 14.0406c0.0411969,0.90293 0.27704,1.57039 0.708284,2.00126 0.431244,0.431244 1.09833,0.708284 2.00126,0.831497l-0.184441 5.11106c-3.53084,0 -6.26079,-0.759308 -8.19062,-2.2783 -3.28441,1.51899 -6.58923,2.2783 -9.91446,2.2783 -6.11717,0 -9.17557,-3.26362 -9.17557,-9.79125 0,-3.12038 0.831119,-5.37827 2.49411,-6.77405 1.66262,-1.39578 4.21833,-2.23748 7.66678,-2.52473l7.94382 -0.67767 0 -2.21669c0,-1.64221 -0.359055,-2.79194 -1.07754,-3.44844 -0.718489,-0.656882 -1.77562,-0.985323 -3.1714,-0.985323 -2.62753,0 -5.91194,0.164032 -9.85323,0.492473l-1.97027 0.123213 -0.246425 -4.7418c4.47496,-1.06734 8.59049,-1.60101 12.347,-1.60101 3.75647,0 6.46602,0.810709 8.12864,2.43251 1.66299,1.62142 2.49411,4.19755 2.49411,7.72838zm-13.7942 7.63616c-2.83276,0.246047 -4.24895,1.78583 -4.24895,4.61859 0,2.83276 1.25216,4.24895 3.75647,4.24895 2.05266,0 4.22854,-0.328441 6.52763,-0.985323l1.10816 -0.36926 0 -8.19062 -7.14331 0.67767z"/>
  <polygon id="12" class="fil4" points="212.664,56.1513 219.807,56.1513 225.842,66.8051 231.939,56.1513 239.082,56.1513 229.907,71.3005 239.082,86.942 231.939,86.942 225.842,76.4115 219.807,86.942 212.664,86.942 221.593,71.4853 "/>
  <path id="123" class="fil4" d="M260.759 61.8785l-8.49827 0 0 13.5477c0,2.50432 0.184819,4.16731 0.554079,4.98822 0.369638,0.820914 1.31376,1.23175 2.83276,1.23175l5.04983 -0.184819 0.308032 5.35748c-2.75074,0.53367 -4.8446,0.800504 -6.28158,0.800504 -3.48964,0 -5.88095,-0.800504 -7.17393,-2.40151 -1.29336,-1.60101 -1.94003,-4.61859 -1.94003,-9.05235l0 -14.287 -3.94129 0 0 -5.72712 3.94129 0 0 -8.92914 6.65084 0 0 8.92914 8.49827 0 0 5.72712z"/>
  <path id="1234" class="fil4" d="M288.162 81.3997l1.72422 -0.184819 0.123213 4.98822c-4.68019,0.944127 -8.82671,1.41619 -12.4392,1.41619 -4.55736,0 -7.83119,-1.25216 -9.82224,-3.75647 -1.99143,-2.50432 -2.98696,-6.50684 -2.98696,-12.0083 0,-10.9202 4.45455,-16.3805 13.3633,-16.3805 8.62149,0 12.932,4.7006 12.932,14.1022l-0.430866 4.80303 -19.0904 0c0.0411969,2.54551 0.595276,4.41336 1.66262,5.60391 1.06734,1.19093 3.05877,1.78621 5.97355,1.78621 2.91477,0 5.91156,-0.123213 8.99075,-0.369638zm-3.69487 -12.1931c0,-3.03799 -0.482268,-5.16246 -1.44718,-6.3738 -0.964536,-1.21096 -2.59654,-1.81644 -4.89563,-1.81644 -2.29909,0 -3.97191,0.636095 -5.01884,1.90904 -1.04693,1.27257 -1.5908,3.36643 -1.632,6.2812l12.9936 0z"/>
  <path id="12345" class="fil4" d="M297.523 86.942l0 -30.7907 6.65084 0 0 3.69487c3.48926,-2.25789 6.9789,-3.71528 10.4685,-4.37216l0 6.71245c-3.53046,0.697701 -6.54804,1.60101 -9.05235,2.70955l-1.35496 0.554079 0 21.4919 -6.71207 0z"/>
  <polygon id="123456" class="fil4" points="316.921,56.1513 323.51,56.1513 330.038,81.2149 331.7,81.2149 338.228,56.1513 344.879,56.1513 333.178,100.182 326.589,100.182 330.284,86.942 324.988,86.942 "/>
  <path id="1234567" class="fil4" d="M372.837 65.6349l0 14.0406c0.0411969,0.90293 0.27704,1.57039 0.708284,2.00126 0.431244,0.431244 1.09833,0.708284 2.00126,0.831497l-0.184441 5.11106c-3.53084,0 -6.26079,-0.759308 -8.19062,-2.2783 -3.28441,1.51899 -6.58923,2.2783 -9.91446,2.2783 -6.11717,0 -9.17557,-3.26362 -9.17557,-9.79125 0,-3.12038 0.831119,-5.37827 2.49411,-6.77405 1.66262,-1.39578 4.21833,-2.23748 7.66678,-2.52473l7.94382 -0.67767 0 -2.21669c0,-1.64221 -0.359055,-2.79194 -1.07754,-3.44844 -0.718489,-0.656882 -1.77562,-0.985323 -3.1714,-0.985323 -2.62753,0 -5.91194,0.164032 -9.85323,0.492473l-1.97027 0.123213 -0.246425 -4.7418c4.47496,-1.06734 8.59049,-1.60101 12.347,-1.60101 3.75647,0 6.46602,0.810709 8.12864,2.43251 1.66299,1.62142 2.49411,4.19755 2.49411,7.72838zm-13.7942 7.63616c-2.83276,0.246047 -4.24895,1.78583 -4.24895,4.61859 0,2.83276 1.25216,4.24895 3.75647,4.24895 2.05266,0 4.22854,-0.328441 6.52763,-0.985323l1.10816 -0.36926 0 -8.19062 -7.14331 0.67767z"/>
 </g>
</svg>
