<?xml version="1.0" encoding="utf-8"?>
<!-- Generator: Adobe Illustrator 24.0.1, SVG Export Plug-In . SVG Version: 6.00 Build 0)  -->
<svg version="1.1" id="Layer_1" xmlns="http://www.w3.org/2000/svg" xmlns:xlink="http://www.w3.org/1999/xlink" x="0px" y="0px"
	 viewBox="0 0 1920 1080" style="enable-background:new 0 0 1920 1080;" xml:space="preserve">
<style type="text/css">
	.st0{fill:none;stroke:#1BB2C7;stroke-width:15;stroke-miterlimit:10;}
	.st1{fill:none;stroke:#1E5461;stroke-width:15;stroke-miterlimit:10;}
	.st2{fill:none;stroke:#0071BC;stroke-width:10;stroke-miterlimit:10;}
	.st3{fill:#FFFFFF;}
	.st4{fill:#1BB2C7;}
	.st5{fill:#1E5461;}
	.st6{fill:#666666;}
	.st7{fill:none;}
	.st8{display:none;}
	.st9{display:inline;fill:none;stroke:#1BB2C7;stroke-width:40;stroke-miterlimit:10;}
	.st10{fill:none;stroke:#1E5461;stroke-width:20;stroke-miterlimit:10;}
	.st11{fill:none;stroke:#1BB2C7;stroke-width:20;stroke-miterlimit:10;}
	.st12{fill-rule:evenodd;clip-rule:evenodd;fill:#102F36;}
	.st13{fill-rule:evenodd;clip-rule:evenodd;fill:#1F5361;}
	.st14{clip-path:url(#SVGID_2_);fill-rule:evenodd;clip-rule:evenodd;fill:#00A7C6;}
	.st15{clip-path:url(#SVGID_2_);fill-rule:evenodd;clip-rule:evenodd;fill:#00A8C5;}
	.st16{clip-path:url(#SVGID_2_);fill-rule:evenodd;clip-rule:evenodd;fill:#00A9C5;}
	.st17{clip-path:url(#SVGID_2_);fill-rule:evenodd;clip-rule:evenodd;fill:#02AAC5;}
	.st18{clip-path:url(#SVGID_2_);fill-rule:evenodd;clip-rule:evenodd;fill:#00ABC5;}
	.st19{clip-path:url(#SVGID_2_);fill-rule:evenodd;clip-rule:evenodd;fill:#0AABC5;}
	.st20{clip-path:url(#SVGID_2_);fill-rule:evenodd;clip-rule:evenodd;fill:#07ABC6;}
	.st21{clip-path:url(#SVGID_2_);fill-rule:evenodd;clip-rule:evenodd;fill:#02ACC6;}
	.st22{clip-path:url(#SVGID_2_);fill-rule:evenodd;clip-rule:evenodd;fill:#0EACC6;}
	.st23{clip-path:url(#SVGID_2_);fill-rule:evenodd;clip-rule:evenodd;fill:#06ADC6;}
	.st24{clip-path:url(#SVGID_2_);fill-rule:evenodd;clip-rule:evenodd;fill:#0CAEC6;}
	.st25{clip-path:url(#SVGID_2_);fill-rule:evenodd;clip-rule:evenodd;fill:#0FAEC5;}
	.st26{clip-path:url(#SVGID_2_);fill-rule:evenodd;clip-rule:evenodd;fill:#0DAEC6;}
	.st27{clip-path:url(#SVGID_2_);fill-rule:evenodd;clip-rule:evenodd;fill:#10AFC6;}
	.st28{clip-path:url(#SVGID_2_);fill-rule:evenodd;clip-rule:evenodd;fill:#11AFC6;}
	.st29{clip-path:url(#SVGID_2_);fill-rule:evenodd;clip-rule:evenodd;fill:#14B0C6;}
	.st30{clip-path:url(#SVGID_2_);fill-rule:evenodd;clip-rule:evenodd;fill:#13B0C7;}
	.st31{clip-path:url(#SVGID_2_);fill-rule:evenodd;clip-rule:evenodd;fill:#12B1C6;}
	.st32{clip-path:url(#SVGID_2_);fill-rule:evenodd;clip-rule:evenodd;fill:#17B1C7;}
	.st33{clip-path:url(#SVGID_2_);fill-rule:evenodd;clip-rule:evenodd;fill:#16B1C7;}
	.st34{clip-path:url(#SVGID_2_);fill-rule:evenodd;clip-rule:evenodd;fill:#19B3C7;}
	.st35{clip-path:url(#SVGID_2_);fill-rule:evenodd;clip-rule:evenodd;fill:#1DB3C7;}
	.st36{clip-path:url(#SVGID_2_);fill-rule:evenodd;clip-rule:evenodd;fill:#21B4C7;}
	.st37{clip-path:url(#SVGID_2_);fill-rule:evenodd;clip-rule:evenodd;fill:#23B5C7;}
	.st38{clip-path:url(#SVGID_2_);fill-rule:evenodd;clip-rule:evenodd;fill:#24B4C6;}
	.st39{clip-path:url(#SVGID_2_);fill-rule:evenodd;clip-rule:evenodd;fill:#23B4C8;}
	.st40{clip-path:url(#SVGID_2_);fill-rule:evenodd;clip-rule:evenodd;fill:#25B6C8;}
	.st41{clip-path:url(#SVGID_2_);fill-rule:evenodd;clip-rule:evenodd;fill:#27B6C8;}
	.st42{clip-path:url(#SVGID_2_);fill-rule:evenodd;clip-rule:evenodd;fill:#2BB7C8;}
	.st43{clip-path:url(#SVGID_2_);fill-rule:evenodd;clip-rule:evenodd;fill:#2CB8C8;}
	.st44{clip-path:url(#SVGID_2_);fill-rule:evenodd;clip-rule:evenodd;fill:#2FB8C8;}
	.st45{clip-path:url(#SVGID_2_);fill-rule:evenodd;clip-rule:evenodd;fill:#30B9C8;}
	.st46{clip-path:url(#SVGID_2_);fill-rule:evenodd;clip-rule:evenodd;fill:#33BAC8;}
	.st47{clip-path:url(#SVGID_2_);fill-rule:evenodd;clip-rule:evenodd;fill:#32BAC9;}
	.st48{clip-path:url(#SVGID_2_);fill-rule:evenodd;clip-rule:evenodd;fill:#35BAC9;}
	.st49{clip-path:url(#SVGID_2_);fill-rule:evenodd;clip-rule:evenodd;fill:#34BAC9;}
	.st50{clip-path:url(#SVGID_2_);fill-rule:evenodd;clip-rule:evenodd;fill:#37BBC9;}
	.st51{clip-path:url(#SVGID_2_);fill-rule:evenodd;clip-rule:evenodd;fill:#36BBCA;}
	.st52{clip-path:url(#SVGID_2_);fill-rule:evenodd;clip-rule:evenodd;fill:#37BCCA;}
	.st53{clip-path:url(#SVGID_2_);fill-rule:evenodd;clip-rule:evenodd;fill:#3ABDCA;}
	.st54{clip-path:url(#SVGID_2_);fill-rule:evenodd;clip-rule:evenodd;fill:#3BBECA;}
	.st55{clip-path:url(#SVGID_2_);fill-rule:evenodd;clip-rule:evenodd;fill:#3CBDCA;}
	.st56{clip-path:url(#SVGID_2_);fill-rule:evenodd;clip-rule:evenodd;fill:#3EBDCA;}
	.st57{clip-path:url(#SVGID_2_);fill-rule:evenodd;clip-rule:evenodd;fill:#3CBFCA;}
	.st58{clip-path:url(#SVGID_2_);fill-rule:evenodd;clip-rule:evenodd;fill:#3EBFCA;}
	.st59{clip-path:url(#SVGID_2_);fill-rule:evenodd;clip-rule:evenodd;fill:#40BECA;}
	.st60{clip-path:url(#SVGID_2_);fill-rule:evenodd;clip-rule:evenodd;fill:#3FC1CC;}
	.st61{fill-rule:evenodd;clip-rule:evenodd;fill:#FFFFFF;}
</style>
<g>
	<path class="st0" d="M1348,685.98l103.87,103.87c7.78,7.78,14.14,23.14,14.14,34.14V949.5"/>
</g>
<g>
	<path class="st1" d="M1014.77,685.98V390.99c0-11-9-20-20-20H858.43c-11,0-20-9-20-20V202c0-11,9-20,20-20h437.9"/>
</g>
<path class="st2" d="M1197.17,664.55"/>
<g>
	<path class="st0" d="M339.75,949h95.59c11,0,26.17-6.55,33.71-14.57L689.1,700.55c7.54-8.01,22.71-14.57,33.71-14.57H1749"/>
</g>
<g>
	<circle class="st3" cx="340" cy="949" r="27.5"/>
	<path class="st4" d="M340,926.5c12.41,0,22.5,10.09,22.5,22.5s-10.09,22.5-22.5,22.5s-22.5-10.09-22.5-22.5S327.59,926.5,340,926.5
		 M340,916.5c-17.95,0-32.5,14.55-32.5,32.5s14.55,32.5,32.5,32.5s32.5-14.55,32.5-32.5S357.95,916.5,340,916.5L340,916.5z"/>
</g>
<g>
	<circle class="st3" cx="789" cy="686" r="15"/>
	<path class="st4" d="M789,676c5.51,0,10,4.49,10,10s-4.49,10-10,10s-10-4.49-10-10S783.49,676,789,676 M789,666
		c-11.05,0-20,8.95-20,20s8.95,20,20,20s20-8.95,20-20S800.05,666,789,666L789,666z"/>
</g>
<g>
	<circle class="st3" cx="1015" cy="182" r="20"/>
	<path class="st5" d="M1015,167c8.27,0,15,6.73,15,15s-6.73,15-15,15s-15-6.73-15-15S1006.73,167,1015,167 M1015,157
		c-13.81,0-25,11.19-25,25s11.19,25,25,25s25-11.19,25-25S1028.81,157,1015,157L1015,157z"/>
</g>
<g>
	<circle class="st3" cx="1350" cy="686" r="20"/>
	<path class="st4" d="M1350,671c8.27,0,15,6.73,15,15s-6.73,15-15,15s-15-6.73-15-15S1341.73,671,1350,671 M1350,661
		c-13.81,0-25,11.19-25,25s11.19,25,25,25s25-11.19,25-25S1363.81,661,1350,661L1350,661z"/>
</g>
<g>
	<circle class="st3" cx="1749" cy="686" r="27.5"/>
	<path class="st4" d="M1749,663.5c12.41,0,22.5,10.09,22.5,22.5s-10.09,22.5-22.5,22.5s-22.5-10.09-22.5-22.5
		S1736.59,663.5,1749,663.5 M1749,653.5c-17.95,0-32.5,14.55-32.5,32.5s14.55,32.5,32.5,32.5s32.5-14.55,32.5-32.5
		S1766.95,653.5,1749,653.5L1749,653.5z"/>
</g>
<g>
	<circle class="st3" cx="1466" cy="950" r="25"/>
	<path class="st6" d="M1466,930c11.03,0,20,8.97,20,20s-8.97,20-20,20s-20-8.97-20-20S1454.97,930,1466,930 M1466,920
		c-16.57,0-30,13.43-30,30s13.43,30,30,30s30-13.43,30-30S1482.57,920,1466,920L1466,920z"/>
</g>
<g>
	<circle class="st3" cx="1015" cy="686" r="15"/>
	<path class="st4" d="M1015,676c5.51,0,10,4.49,10,10s-4.49,10-10,10s-10-4.49-10-10S1009.49,676,1015,676 M1015,666
		c-11.05,0-20,8.95-20,20s8.95,20,20,20s20-8.95,20-20S1026.05,666,1015,666L1015,666z"/>
</g>
<g>
	<circle class="st3" cx="1296" cy="182" r="27.5"/>
	<path class="st5" d="M1296,159.5c12.41,0,22.5,10.09,22.5,22.5s-10.09,22.5-22.5,22.5s-22.5-10.09-22.5-22.5
		S1283.59,159.5,1296,159.5 M1296,149.5c-17.95,0-32.5,14.55-32.5,32.5s14.55,32.5,32.5,32.5s32.5-14.55,32.5-32.5
		S1313.95,149.5,1296,149.5L1296,149.5z"/>
</g>
<g>
	<path d="M387.56,991.3h-5.04v7.67h-4v-24.66h9.04c5.59,0,8.39,2.76,8.39,8.28c0,2.83-0.7,4.99-2.11,6.48
		C392.44,990.56,390.34,991.3,387.56,991.3z M382.52,987.84h5c2.88,0,4.32-1.75,4.32-5.26c0-1.68-0.35-2.9-1.04-3.67
		c-0.7-0.77-1.79-1.15-3.28-1.15h-5V987.84z"/>
	<path d="M412.14,995.73l1.01-0.11l0.07,2.92c-2.74,0.55-5.16,0.83-7.27,0.83c-2.66,0-4.58-0.73-5.74-2.2s-1.75-3.8-1.75-7.02
		c0-6.38,2.6-9.58,7.81-9.58c5.04,0,7.56,2.75,7.56,8.24l-0.25,2.81h-11.16c0.02,1.49,0.35,2.58,0.97,3.28
		c0.62,0.7,1.79,1.04,3.49,1.04C408.59,995.94,410.34,995.87,412.14,995.73z M409.98,988.6c0-1.78-0.28-3.02-0.85-3.73
		c-0.56-0.71-1.52-1.06-2.86-1.06c-1.34,0-2.32,0.37-2.93,1.12c-0.61,0.74-0.93,1.97-0.95,3.67H409.98z"/>
	<path d="M421.54,998.97h-3.92v-18h3.89v1.12c1.75-1.01,3.41-1.51,4.97-1.51c2.4,0,4.04,0.68,4.91,2.03
		c0.88,1.36,1.31,3.59,1.31,6.71v9.65h-3.89v-9.54c0-1.94-0.21-3.32-0.63-4.14c-0.42-0.82-1.28-1.22-2.57-1.22
		c-1.22,0-2.4,0.24-3.53,0.72l-0.54,0.22V998.97z"/>
	<path d="M437.49,998.97v-25.49h3.92v25.49H437.49z"/>
	<path d="M446.38,977.91v-4.14h3.92v4.14H446.38z M446.38,998.97v-18h3.92v18H446.38z"/>
	<path d="M468.38,986.51v8.21c0.02,0.53,0.16,0.92,0.41,1.17s0.64,0.41,1.17,0.49l-0.11,2.99c-2.06,0-3.66-0.44-4.79-1.33
		c-1.92,0.89-3.85,1.33-5.8,1.33c-3.58,0-5.36-1.91-5.36-5.72c0-1.82,0.49-3.14,1.46-3.96c0.97-0.82,2.47-1.31,4.48-1.48l4.64-0.4
		v-1.3c0-0.96-0.21-1.63-0.63-2.02c-0.42-0.38-1.04-0.58-1.85-0.58c-1.54,0-3.46,0.1-5.76,0.29l-1.15,0.07l-0.14-2.77
		c2.62-0.62,5.02-0.94,7.22-0.94c2.2,0,3.78,0.47,4.75,1.42C467.89,982.94,468.38,984.45,468.38,986.51z M460.31,990.98
		c-1.66,0.14-2.48,1.04-2.48,2.7s0.73,2.48,2.2,2.48c1.2,0,2.47-0.19,3.82-0.58l0.65-0.22v-4.79L460.31,990.98z"/>
	<path d="M477.23,998.97h-3.92v-18h3.89v1.12c1.7-1.01,3.26-1.51,4.68-1.51c2.09,0,3.61,0.59,4.57,1.76
		c2.18-1.18,4.36-1.76,6.52-1.76c2.16,0,3.68,0.67,4.57,2c0.89,1.33,1.33,3.58,1.33,6.75v9.65h-3.89v-9.54
		c0-1.94-0.2-3.32-0.59-4.14c-0.4-0.82-1.22-1.22-2.47-1.22c-1.08,0-2.24,0.24-3.49,0.72l-0.61,0.25c0.19,0.48,0.29,2.02,0.29,4.61
		v9.32h-3.89v-9.25c0-2.14-0.19-3.61-0.58-4.43c-0.38-0.82-1.22-1.22-2.52-1.22c-1.2,0-2.32,0.24-3.35,0.72l-0.54,0.22V998.97z"/>
</g>
<g>
	<rect x="1008.35" y="1117.9" class="st7" width="72" height="27.87"/>
</g>
<g>
	<path d="M1513.05,932.15v-16.44h2.66v16.44H1513.05z"/>
	<path d="M1521.81,932.15h-2.62v-12h2.59v0.74c1.17-0.67,2.27-1.01,3.31-1.01c1.6,0,2.69,0.45,3.28,1.36
		c0.58,0.9,0.88,2.4,0.88,4.48v6.43h-2.59v-6.36c0-1.3-0.14-2.22-0.42-2.76c-0.28-0.54-0.85-0.82-1.72-0.82
		c-0.82,0-1.6,0.16-2.35,0.48l-0.36,0.14V932.15z"/>
	<path d="M1542.09,915.16v16.99h-2.59v-0.62c-1.17,0.59-2.24,0.89-3.22,0.89c-1.57,0-2.72-0.47-3.44-1.42
		c-0.73-0.94-1.09-2.53-1.09-4.75c0-2.22,0.4-3.84,1.21-4.85c0.81-1.01,2.07-1.51,3.78-1.51c0.58,0,1.49,0.1,2.74,0.31v-5.04
		H1542.09z M1539.07,929.66l0.41-0.17v-7.1c-0.96-0.16-1.85-0.24-2.66-0.24c-1.62,0-2.42,1.34-2.42,4.03c0,1.47,0.19,2.49,0.56,3.06
		c0.38,0.57,0.97,0.85,1.79,0.85S1538.33,929.94,1539.07,929.66z"/>
	<path d="M1552.53,920.15h2.59v12h-2.59v-0.74c-1.17,0.67-2.25,1.01-3.24,1.01c-1.65,0-2.75-0.44-3.31-1.33
		c-0.56-0.89-0.84-2.44-0.84-4.67v-6.26h2.62v6.29c0,1.44,0.12,2.41,0.36,2.9s0.8,0.74,1.68,0.74c0.86,0,1.66-0.16,2.38-0.48
		l0.36-0.14V920.15z"/>
	<path d="M1566.62,922.62c-1.89-0.26-3.26-0.38-4.1-0.38c-0.85,0-1.44,0.1-1.76,0.3c-0.33,0.2-0.49,0.52-0.49,0.95
		s0.18,0.74,0.54,0.91c0.36,0.18,1.21,0.38,2.54,0.61c1.33,0.23,2.28,0.6,2.84,1.09c0.56,0.5,0.84,1.38,0.84,2.64
		c0,1.26-0.4,2.19-1.21,2.78c-0.81,0.59-1.99,0.89-3.54,0.89c-0.98,0-2.21-0.14-3.7-0.41l-0.74-0.12l0.1-2.18
		c1.92,0.26,3.3,0.38,4.15,0.38c0.85,0,1.45-0.1,1.81-0.31c0.36-0.21,0.54-0.55,0.54-1.03c0-0.48-0.17-0.81-0.52-1
		c-0.34-0.18-1.17-0.38-2.47-0.6c-1.3-0.22-2.26-0.56-2.87-1.02c-0.61-0.46-0.91-1.31-0.91-2.54c0-1.23,0.42-2.15,1.26-2.76
		c0.84-0.61,1.92-0.91,3.23-0.91c1.02,0,2.28,0.13,3.77,0.38l0.74,0.14L1566.62,922.62z"/>
	<path d="M1576,922.38h-3.31v5.28c0,0.98,0.07,1.62,0.21,1.94c0.14,0.32,0.51,0.48,1.1,0.48l1.97-0.07l0.12,2.09
		c-1.07,0.21-1.89,0.31-2.45,0.31c-1.36,0-2.29-0.31-2.79-0.94s-0.76-1.8-0.76-3.53v-5.57h-1.54v-2.23h1.54v-3.48h2.59v3.48h3.31
		V922.38z"/>
	<path d="M1578.14,932.15v-12h2.59v1.44c1.36-0.88,2.72-1.45,4.08-1.7v2.62c-1.38,0.27-2.55,0.62-3.53,1.06l-0.53,0.22v8.38H1578.14
		z"/>
	<path d="M1586.8,918.11v-2.76h2.62v2.76H1586.8z M1586.8,932.15v-12h2.62v12H1586.8z"/>
	<path d="M1601.47,923.85v5.47c0.02,0.35,0.11,0.61,0.28,0.78s0.43,0.28,0.78,0.32l-0.07,1.99c-1.38,0-2.44-0.3-3.19-0.89
		c-1.28,0.59-2.57,0.89-3.86,0.89c-2.38,0-3.58-1.27-3.58-3.82c0-1.22,0.32-2.1,0.97-2.64c0.65-0.54,1.64-0.87,2.99-0.98l3.1-0.26
		v-0.86c0-0.64-0.14-1.09-0.42-1.34c-0.28-0.25-0.69-0.38-1.24-0.38c-1.02,0-2.3,0.06-3.84,0.19l-0.77,0.05l-0.1-1.85
		c1.74-0.42,3.35-0.62,4.81-0.62c1.46,0,2.52,0.32,3.17,0.95C1601.14,921.47,1601.47,922.47,1601.47,923.85z M1596.09,926.82
		c-1.1,0.1-1.66,0.7-1.66,1.8c0,1.1,0.49,1.66,1.46,1.66c0.8,0,1.65-0.13,2.54-0.38l0.43-0.14v-3.19L1596.09,926.82z"/>
	<path d="M1604.9,932.15v-16.99h2.62v16.99H1604.9z"/>
	<path d="M1518.74,960.95h-5.69v-16.44h5.69c2.53,0,4.26,0.64,5.18,1.92c0.93,1.28,1.39,3.29,1.39,6.02c0,1.39-0.09,2.57-0.28,3.54
		c-0.18,0.97-0.51,1.84-0.97,2.63C1523.16,960.18,1521.38,960.95,1518.74,960.95z M1522.56,952.46c0-1.98-0.25-3.42-0.74-4.3
		s-1.52-1.32-3.07-1.32h-3.02v11.76h3.02c1.58,0,2.64-0.58,3.17-1.75c0.26-0.59,0.43-1.22,0.52-1.9S1522.56,953.45,1522.56,952.46z"
		/>
	<path d="M1528.12,946.91v-2.76h2.62v2.76H1528.12z M1528.12,960.95v-12h2.62v12H1528.12z"/>
	<path d="M1542.24,951.42c-1.89-0.26-3.26-0.38-4.1-0.38s-1.44,0.1-1.76,0.3c-0.33,0.2-0.49,0.52-0.49,0.95s0.18,0.74,0.54,0.91
		s1.21,0.38,2.54,0.61c1.34,0.23,2.28,0.6,2.84,1.09c0.56,0.5,0.84,1.38,0.84,2.64c0,1.26-0.4,2.19-1.21,2.78
		c-0.81,0.59-1.99,0.89-3.54,0.89c-0.98,0-2.21-0.14-3.7-0.41l-0.74-0.12l0.1-2.18c1.92,0.26,3.3,0.38,4.15,0.38s1.45-0.1,1.81-0.31
		c0.36-0.21,0.54-0.55,0.54-1.03c0-0.48-0.17-0.81-0.52-1c-0.34-0.18-1.17-0.38-2.47-0.6c-1.3-0.22-2.26-0.56-2.87-1.02
		c-0.61-0.46-0.91-1.31-0.91-2.54c0-1.23,0.42-2.15,1.26-2.76c0.84-0.61,1.92-0.91,3.23-0.91c1.02,0,2.28,0.13,3.77,0.38l0.74,0.14
		L1542.24,951.42z"/>
	<path d="M1551.62,951.18h-3.31v5.28c0,0.98,0.07,1.62,0.22,1.94c0.14,0.32,0.51,0.48,1.1,0.48l1.97-0.07l0.12,2.09
		c-1.07,0.21-1.89,0.31-2.45,0.31c-1.36,0-2.29-0.31-2.8-0.94s-0.76-1.8-0.76-3.53v-5.57h-1.54v-2.23h1.54v-3.48h2.59v3.48h3.31
		V951.18z"/>
	<path d="M1553.75,960.95v-12h2.59v1.44c1.36-0.88,2.72-1.45,4.08-1.7v2.62c-1.38,0.27-2.55,0.62-3.53,1.06l-0.53,0.22v8.38H1553.75
		z"/>
	<path d="M1562.42,946.91v-2.76h2.62v2.76H1562.42z M1562.42,960.95v-12h2.62v12H1562.42z"/>
	<path d="M1572.69,948.69c0.85,0,1.85,0.11,3,0.34l0.6,0.12l-0.1,2.06c-1.26-0.13-2.2-0.19-2.81-0.19c-1.22,0-2.03,0.27-2.45,0.82
		s-0.62,1.57-0.62,3.07s0.2,2.54,0.6,3.12c0.4,0.58,1.23,0.86,2.5,0.86l2.81-0.19l0.07,2.09c-1.62,0.29-2.83,0.43-3.65,0.43
		c-1.82,0-3.11-0.49-3.85-1.48s-1.12-2.6-1.12-4.84s0.39-3.84,1.18-4.79S1570.91,948.69,1572.69,948.69z"/>
	<path d="M1585.27,951.18h-3.31v5.28c0,0.98,0.07,1.62,0.21,1.94c0.14,0.32,0.51,0.48,1.1,0.48l1.97-0.07l0.12,2.09
		c-1.07,0.21-1.89,0.31-2.45,0.31c-1.36,0-2.29-0.31-2.79-0.94s-0.76-1.8-0.76-3.53v-5.57h-1.54v-2.23h1.54v-3.48h2.59v3.48h3.31
		V951.18z"/>
	<path d="M1515.8,977.13c-0.49,2.21-0.73,4.01-0.73,5.4c0,1.39,0.19,2.94,0.56,4.64s0.76,3.06,1.14,4.07l0.58,1.51h-2.47
		c-0.22-0.37-0.51-0.98-0.86-1.84c-0.35-0.86-0.65-1.66-0.89-2.42c-0.24-0.76-0.46-1.69-0.65-2.78s-0.29-2.31-0.29-3.64
		s0.22-2.89,0.67-4.68c0.45-1.79,0.9-3.18,1.34-4.15l0.67-1.49h2.47C1516.8,973.13,1516.29,974.92,1515.8,977.13z"/>
	<path d="M1530.82,988c-0.98,1.34-2.72,2.02-5.2,2.02c-2.48,0-4.22-0.68-5.21-2.03c-0.99-1.35-1.49-3.48-1.49-6.37
		c0-2.9,0.5-5.05,1.5-6.46s2.73-2.11,5.2-2.11s4.19,0.7,5.18,2.1c0.99,1.4,1.49,3.56,1.49,6.47S1531.81,986.66,1530.82,988z
		 M1522.51,986.27c0.54,0.94,1.58,1.42,3.12,1.42s2.57-0.46,3.11-1.39c0.54-0.93,0.8-2.48,0.8-4.67s-0.28-3.77-0.83-4.76
		s-1.58-1.49-3.08-1.49c-1.5,0-2.54,0.5-3.1,1.49c-0.56,0.99-0.84,2.57-0.84,4.74C1521.69,983.77,1521.96,985.33,1522.51,986.27z"/>
	<path d="M1535.08,994.91v-17.16h2.59v0.74c1.1-0.67,2.14-1.01,3.1-1.01c1.58,0,2.74,0.48,3.48,1.45c0.74,0.97,1.1,2.59,1.1,4.87
		c0,2.28-0.42,3.88-1.26,4.81s-2.21,1.39-4.12,1.39c-0.66,0-1.42-0.07-2.28-0.22v5.11H1535.08z M1540.32,979.82
		c-0.75,0-1.5,0.17-2.26,0.5l-0.36,0.17v7.08c0.64,0.13,1.34,0.19,2.11,0.19c1.09,0,1.84-0.31,2.26-0.94s0.62-1.69,0.62-3.19
		C1542.69,981.09,1541.9,979.82,1540.32,979.82z"/>
	<path d="M1556.52,987.59l0.67-0.07l0.05,1.94c-1.82,0.37-3.44,0.55-4.85,0.55c-1.78,0-3.05-0.49-3.83-1.46
		c-0.78-0.98-1.16-2.54-1.16-4.68c0-4.26,1.74-6.38,5.21-6.38c3.36,0,5.04,1.83,5.04,5.5l-0.17,1.87h-7.44
		c0.02,0.99,0.23,1.72,0.65,2.18s1.19,0.7,2.33,0.7C1554.15,987.74,1555.32,987.69,1556.52,987.59z M1555.08,982.84
		c0-1.18-0.19-2.01-0.56-2.48c-0.38-0.47-1.01-0.71-1.91-0.71c-0.9,0-1.55,0.25-1.96,0.74c-0.41,0.5-0.62,1.31-0.63,2.45H1555.08z"
		/>
	<path d="M1562.78,989.75h-2.62v-12h2.59v0.74c1.17-0.67,2.27-1.01,3.31-1.01c1.6,0,2.69,0.45,3.28,1.36
		c0.58,0.9,0.88,2.4,0.88,4.48v6.43h-2.59v-6.36c0-1.3-0.14-2.22-0.42-2.76c-0.28-0.54-0.85-0.82-1.72-0.82
		c-0.82,0-1.6,0.16-2.35,0.48l-0.36,0.14V989.75z"/>
	<path d="M1573.27,975.71v-2.76h2.62v2.76H1573.27z M1573.27,989.75v-12h2.62v12H1573.27z"/>
	<path d="M1581.67,989.75h-2.62v-12h2.59v0.74c1.17-0.67,2.27-1.01,3.31-1.01c1.6,0,2.69,0.45,3.28,1.36
		c0.58,0.9,0.88,2.4,0.88,4.48v6.43h-2.59v-6.36c0-1.3-0.14-2.22-0.42-2.76s-0.85-0.82-1.72-0.82c-0.82,0-1.6,0.16-2.35,0.48
		l-0.36,0.14V989.75z"/>
	<path d="M1602.64,991.38c0,2.62-1.9,3.94-5.69,3.94c-1.82,0-3.18-0.25-4.06-0.74c-0.88-0.5-1.32-1.4-1.32-2.71
		c0-0.59,0.14-1.1,0.43-1.52c0.29-0.42,0.75-0.88,1.39-1.38c-0.53-0.35-0.79-0.94-0.79-1.75c0-0.32,0.22-0.84,0.65-1.56l0.22-0.36
		c-1.15-0.69-1.73-1.89-1.73-3.6c0-1.44,0.43-2.5,1.3-3.17c0.86-0.67,2.03-1.01,3.5-1.01c0.7,0,1.4,0.08,2.09,0.24l0.36,0.07
		l3.72-0.1v2.11l-1.99-0.12c0.43,0.56,0.65,1.22,0.65,1.97c0,1.57-0.4,2.65-1.19,3.25c-0.79,0.6-2.03,0.9-3.71,0.9
		c-0.42,0-0.77-0.03-1.06-0.1c-0.22,0.54-0.34,0.96-0.34,1.26s0.15,0.5,0.44,0.61s1.01,0.18,2.15,0.19c1.9,0.02,3.21,0.27,3.91,0.77
		S1602.64,990.01,1602.64,991.38z M1594.15,991.62c0,0.56,0.22,0.96,0.67,1.2c0.45,0.24,1.22,0.36,2.3,0.36
		c1.94,0,2.9-0.55,2.9-1.66c0-0.62-0.17-1.02-0.52-1.19s-1.03-0.26-2.05-0.28l-2.35-0.14c-0.35,0.29-0.6,0.56-0.74,0.8
		S1594.15,991.27,1594.15,991.62z M1594.87,983.31c0.35,0.34,0.92,0.52,1.7,0.52c0.78,0,1.35-0.17,1.69-0.52
		c0.34-0.34,0.52-0.88,0.52-1.62c0-0.74-0.18-1.28-0.53-1.62c-0.35-0.34-0.92-0.52-1.7-0.52c-1.47,0-2.21,0.71-2.21,2.14
		C1594.34,982.42,1594.51,982.96,1594.87,983.31z"/>
	<path d="M1615.17,975.38c-2.03,0-3.05,0.71-3.05,2.14c0,0.74,0.24,1.26,0.72,1.57c0.48,0.31,1.54,0.7,3.18,1.15
		c1.64,0.46,2.8,1,3.47,1.63s1.01,1.63,1.01,2.99c0,1.73-0.49,3.02-1.48,3.88c-0.98,0.86-2.32,1.28-4.02,1.28
		c-1.36,0-2.86-0.16-4.51-0.48l-0.86-0.17l0.26-2.14c2.16,0.29,3.81,0.43,4.94,0.43c1.98,0,2.98-0.88,2.98-2.64
		c0-0.69-0.22-1.2-0.67-1.52c-0.45-0.33-1.46-0.69-3.02-1.08c-1.57-0.39-2.74-0.93-3.5-1.62c-0.77-0.69-1.15-1.78-1.15-3.26
		s0.48-2.61,1.45-3.37c0.97-0.76,2.31-1.14,4.02-1.14c1.23,0,2.69,0.14,4.37,0.43l0.84,0.14l-0.22,2.16
		C1617.68,975.5,1616.1,975.38,1615.17,975.38z"/>
	<path d="M1623.73,979.05c0.82-1.04,2.2-1.56,4.12-1.56s3.29,0.52,4.12,1.56c0.82,1.04,1.24,2.6,1.24,4.68c0,2.08-0.4,3.65-1.2,4.7
		c-0.8,1.06-2.18,1.58-4.15,1.58c-1.97,0-3.35-0.53-4.15-1.58c-0.8-1.06-1.2-2.62-1.2-4.7
		C1622.49,981.65,1622.9,980.09,1623.73,979.05z M1625.68,986.85c0.37,0.64,1.09,0.96,2.16,0.96s1.79-0.32,2.16-0.96
		c0.37-0.64,0.55-1.69,0.55-3.14s-0.2-2.49-0.59-3.1c-0.39-0.61-1.1-0.91-2.12-0.91s-1.73,0.3-2.12,0.91
		c-0.39,0.61-0.59,1.64-0.59,3.1S1625.31,986.21,1625.68,986.85z"/>
	<path d="M1636.45,979.05c0.82-1.04,2.2-1.56,4.12-1.56s3.29,0.52,4.12,1.56s1.24,2.6,1.24,4.68c0,2.08-0.4,3.65-1.2,4.7
		c-0.8,1.06-2.18,1.58-4.15,1.58c-1.97,0-3.35-0.53-4.15-1.58c-0.8-1.06-1.2-2.62-1.2-4.7
		C1635.21,981.65,1635.62,980.09,1636.45,979.05z M1638.4,986.85c0.37,0.64,1.09,0.96,2.16,0.96c1.07,0,1.79-0.32,2.16-0.96
		c0.37-0.64,0.55-1.69,0.55-3.14s-0.2-2.49-0.59-3.1c-0.39-0.61-1.1-0.91-2.12-0.91c-1.02,0-1.73,0.3-2.13,0.91
		c-0.39,0.61-0.59,1.64-0.59,3.1S1638.03,986.21,1638.4,986.85z"/>
	<path d="M1651.12,989.75h-2.62v-12h2.59v0.74c1.17-0.67,2.27-1.01,3.31-1.01c1.6,0,2.69,0.45,3.28,1.36
		c0.58,0.9,0.88,2.4,0.88,4.48v6.43h-2.59v-6.36c0-1.3-0.14-2.22-0.42-2.76s-0.85-0.82-1.72-0.82c-0.82,0-1.6,0.16-2.35,0.48
		l-0.36,0.14V989.75z"/>
	<path d="M1665.45,979.29c0.19,1.14,0.29,2.22,0.29,3.24c0,1.02-0.09,2.08-0.28,3.16c-0.18,1.08-0.41,2.02-0.68,2.82
		c-0.54,1.7-1.02,2.94-1.44,3.74l-0.29,0.5h-2.47c0.18-0.42,0.39-0.97,0.64-1.67s0.58-1.95,1.01-3.76c0.42-1.81,0.63-3.41,0.63-4.8
		c0-1.39-0.19-2.99-0.56-4.79s-0.76-3.25-1.14-4.36l-0.58-1.63h2.47c0.22,0.42,0.51,1.09,0.86,2.02c0.35,0.93,0.65,1.8,0.89,2.6
		C1665.04,977.18,1665.26,978.15,1665.45,979.29z"/>
</g>
<g>
	<path d="M1593.09,730.48h-5.04v7.67h-4v-24.66h9.04c5.59,0,8.39,2.76,8.39,8.28c0,2.83-0.7,4.99-2.11,6.48
		C1597.96,729.74,1595.87,730.48,1593.09,730.48z M1588.05,727.03h5c2.88,0,4.32-1.75,4.32-5.26c0-1.68-0.35-2.9-1.04-3.67
		c-0.7-0.77-1.79-1.15-3.28-1.15h-5V727.03z"/>
	<path d="M1618,725.7v8.21c0.02,0.53,0.16,0.92,0.41,1.17s0.64,0.41,1.17,0.49l-0.11,2.99c-2.06,0-3.66-0.44-4.79-1.33
		c-1.92,0.89-3.85,1.33-5.8,1.33c-3.58,0-5.36-1.91-5.36-5.72c0-1.82,0.49-3.14,1.46-3.96c0.97-0.82,2.47-1.31,4.48-1.48l4.64-0.4
		v-1.3c0-0.96-0.21-1.63-0.63-2.02s-1.04-0.58-1.85-0.58c-1.54,0-3.46,0.1-5.76,0.29l-1.15,0.07l-0.14-2.77
		c2.62-0.62,5.02-0.94,7.22-0.94c2.2,0,3.78,0.47,4.75,1.42C1617.51,722.13,1618,723.63,1618,725.7z M1609.93,730.16
		c-1.66,0.14-2.48,1.04-2.48,2.7s0.73,2.48,2.2,2.48c1.2,0,2.47-0.19,3.82-0.58l0.65-0.22v-4.79L1609.93,730.16z"/>
	<path d="M1621.2,720.15h4.18l3.53,6.23l3.56-6.23h4.18l-5.36,8.86l5.36,9.14h-4.18l-3.56-6.16l-3.53,6.16h-4.18l5.22-9.04
		L1621.2,720.15z"/>
	<path d="M1649.32,723.5h-4.97v7.92c0,1.46,0.11,2.44,0.32,2.92c0.22,0.48,0.77,0.72,1.66,0.72l2.95-0.11l0.18,3.13
		c-1.61,0.31-2.83,0.47-3.67,0.47c-2.04,0-3.44-0.47-4.2-1.4c-0.76-0.94-1.13-2.7-1.13-5.29v-8.35h-2.3v-3.35h2.3v-5.22h3.89v5.22
		h4.97V723.5z"/>
	<path d="M1665.34,734.91l1.01-0.11l0.07,2.92c-2.74,0.55-5.16,0.83-7.27,0.83c-2.66,0-4.58-0.73-5.74-2.2s-1.75-3.8-1.75-7.02
		c0-6.38,2.6-9.58,7.81-9.58c5.04,0,7.56,2.75,7.56,8.24l-0.25,2.81h-11.16c0.02,1.49,0.35,2.58,0.97,3.28
		c0.62,0.7,1.79,1.04,3.49,1.04C1661.79,735.13,1663.54,735.06,1665.34,734.91z M1663.18,727.78c0-1.78-0.28-3.02-0.85-3.73
		c-0.56-0.71-1.52-1.06-2.86-1.06c-1.34,0-2.32,0.37-2.93,1.12c-0.61,0.74-0.93,1.97-0.95,3.67H1663.18z"/>
	<path d="M1670.81,738.15v-18h3.89v2.16c2.04-1.32,4.08-2.17,6.12-2.56v3.92c-2.06,0.41-3.83,0.94-5.29,1.58l-0.79,0.32v12.56
		H1670.81z"/>
	<path d="M1682.15,720.15h3.85l3.82,14.65h0.97l3.82-14.65h3.89l-6.84,25.74h-3.85l2.16-7.74h-3.1L1682.15,720.15z"/>
	<path d="M1714.55,725.7v8.21c0.02,0.53,0.16,0.92,0.41,1.17s0.64,0.41,1.17,0.49l-0.11,2.99c-2.06,0-3.66-0.44-4.79-1.33
		c-1.92,0.89-3.85,1.33-5.79,1.33c-3.58,0-5.36-1.91-5.36-5.72c0-1.82,0.49-3.14,1.46-3.96c0.97-0.82,2.47-1.31,4.48-1.48l4.64-0.4
		v-1.3c0-0.96-0.21-1.63-0.63-2.02s-1.04-0.58-1.85-0.58c-1.54,0-3.46,0.1-5.76,0.29l-1.15,0.07l-0.14-2.77
		c2.62-0.62,5.02-0.94,7.22-0.94s3.78,0.47,4.75,1.42S1714.55,723.63,1714.55,725.7z M1706.48,730.16c-1.66,0.14-2.48,1.04-2.48,2.7
		s0.73,2.48,2.2,2.48c1.2,0,2.47-0.19,3.82-0.58l0.65-0.22v-4.79L1706.48,730.16z"/>
	<path d="M1614.2,781.35h-8.53v-24.66h8.53c3.79,0,6.38,0.96,7.78,2.88c1.39,1.92,2.09,4.93,2.09,9.04c0,2.09-0.14,3.86-0.41,5.31
		s-0.76,2.77-1.46,3.94C1620.82,780.19,1618.16,781.35,1614.2,781.35z M1619.92,768.61c0-2.98-0.37-5.12-1.12-6.44
		c-0.74-1.32-2.28-1.98-4.61-1.98h-4.54v17.64h4.54c2.38,0,3.96-0.88,4.75-2.63c0.38-0.89,0.64-1.84,0.77-2.84
		S1619.92,770.1,1619.92,768.61z"/>
	<path d="M1641.09,778.11l1.01-0.11l0.07,2.92c-2.74,0.55-5.16,0.83-7.27,0.83c-2.66,0-4.58-0.73-5.74-2.2s-1.75-3.8-1.75-7.02
		c0-6.38,2.6-9.58,7.81-9.58c5.04,0,7.56,2.75,7.56,8.24l-0.25,2.81h-11.16c0.02,1.49,0.35,2.58,0.97,3.28
		c0.63,0.7,1.79,1.04,3.49,1.04S1639.29,778.26,1641.09,778.11z M1638.93,770.98c0-1.78-0.28-3.02-0.85-3.73s-1.52-1.06-2.86-1.06
		c-1.34,0-2.32,0.37-2.93,1.12c-0.61,0.74-0.93,1.97-0.96,3.67H1638.93z"/>
	<path d="M1646.56,789.09v-25.74h3.89v1.12c1.66-1.01,3.2-1.51,4.64-1.51c2.38,0,4.12,0.73,5.22,2.18s1.66,3.89,1.66,7.31
		s-0.63,5.83-1.89,7.22c-1.26,1.39-3.32,2.09-6.17,2.09c-0.98,0-2.12-0.11-3.42-0.32v7.67H1646.56z M1654.41,766.45
		c-1.13,0-2.26,0.25-3.38,0.76l-0.54,0.25v10.62c0.96,0.19,2.02,0.29,3.17,0.29c1.63,0,2.76-0.47,3.38-1.4
		c0.62-0.94,0.94-2.53,0.94-4.79C1657.98,768.36,1656.79,766.45,1654.41,766.45z"/>
	<path d="M1666.89,765.3c1.24-1.56,3.29-2.34,6.17-2.34s4.94,0.78,6.17,2.34c1.24,1.56,1.85,3.9,1.85,7.02c0,3.12-0.6,5.47-1.8,7.06
		s-3.28,2.38-6.23,2.38s-5.03-0.79-6.23-2.38c-1.2-1.58-1.8-3.94-1.8-7.06C1665.03,769.2,1665.65,766.86,1666.89,765.3z
		 M1669.82,777c0.55,0.96,1.63,1.44,3.24,1.44c1.61,0,2.69-0.48,3.24-1.44c0.55-0.96,0.83-2.53,0.83-4.72
		c0-2.18-0.29-3.73-0.88-4.64c-0.59-0.91-1.65-1.37-3.19-1.37s-2.6,0.46-3.19,1.37s-0.88,2.46-0.88,4.64
		C1668.99,774.46,1669.27,776.04,1669.82,777z"/>
	<path d="M1694.66,766.7h-4.97v7.92c0,1.46,0.11,2.44,0.32,2.92c0.22,0.48,0.77,0.72,1.66,0.72l2.95-0.11l0.18,3.13
		c-1.61,0.31-2.83,0.47-3.67,0.47c-2.04,0-3.44-0.47-4.19-1.4c-0.76-0.94-1.13-2.7-1.13-5.29v-8.35h-2.3v-3.35h2.3v-5.22h3.89v5.22
		h4.97V766.7z"/>
</g>
<g>
	<path d="M1348.04,219.48H1343v7.67h-4v-24.66h9.04c5.59,0,8.39,2.76,8.39,8.28c0,2.83-0.7,4.99-2.11,6.48
		C1352.91,218.74,1350.82,219.48,1348.04,219.48z M1343,216.03h5c2.88,0,4.32-1.75,4.32-5.26c0-1.68-0.35-2.9-1.04-3.67
		c-0.7-0.77-1.79-1.15-3.28-1.15h-5V216.03z"/>
	<path d="M1372.95,214.7v8.21c0.02,0.53,0.16,0.92,0.41,1.17s0.64,0.41,1.17,0.49l-0.11,2.99c-2.06,0-3.66-0.44-4.79-1.33
		c-1.92,0.89-3.85,1.33-5.8,1.33c-3.58,0-5.36-1.91-5.36-5.72c0-1.82,0.49-3.14,1.46-3.96c0.97-0.82,2.47-1.31,4.48-1.48l4.64-0.4
		v-1.3c0-0.96-0.21-1.63-0.63-2.02s-1.04-0.58-1.85-0.58c-1.54,0-3.46,0.1-5.76,0.29l-1.15,0.07l-0.14-2.77
		c2.62-0.62,5.02-0.94,7.22-0.94c2.2,0,3.78,0.47,4.75,1.42C1372.46,211.13,1372.95,212.63,1372.95,214.7z M1364.88,219.16
		c-1.66,0.14-2.48,1.04-2.48,2.7s0.73,2.48,2.2,2.48c1.2,0,2.47-0.19,3.82-0.58l0.65-0.22v-4.79L1364.88,219.16z"/>
	<path d="M1376.15,209.15h4.18l3.53,6.23l3.56-6.23h4.18l-5.36,8.86l5.36,9.14h-4.18l-3.56-6.16l-3.53,6.16h-4.18l5.22-9.04
		L1376.15,209.15z"/>
	<path d="M1404.27,212.5h-4.97v7.92c0,1.46,0.11,2.44,0.32,2.92c0.22,0.48,0.77,0.72,1.66,0.72l2.95-0.11l0.18,3.13
		c-1.61,0.31-2.83,0.47-3.67,0.47c-2.04,0-3.44-0.47-4.19-1.4c-0.76-0.94-1.13-2.7-1.13-5.29v-8.35h-2.3v-3.35h2.3v-5.22h3.89v5.22
		h4.97V212.5z"/>
	<path d="M1420.29,223.91l1.01-0.11l0.07,2.92c-2.74,0.55-5.16,0.83-7.27,0.83c-2.66,0-4.58-0.73-5.74-2.2s-1.75-3.8-1.75-7.02
		c0-6.38,2.6-9.58,7.81-9.58c5.04,0,7.56,2.75,7.56,8.24l-0.25,2.81h-11.16c0.02,1.49,0.35,2.58,0.97,3.28
		c0.62,0.7,1.79,1.04,3.49,1.04S1418.49,224.06,1420.29,223.91z M1418.13,216.78c0-1.78-0.28-3.02-0.85-3.73
		c-0.56-0.71-1.52-1.06-2.86-1.06s-2.32,0.37-2.93,1.12c-0.61,0.74-0.93,1.97-0.95,3.67H1418.13z"/>
	<path d="M1425.76,227.15v-18h3.89v2.16c2.04-1.32,4.08-2.17,6.12-2.56v3.92c-2.06,0.41-3.83,0.94-5.29,1.58l-0.79,0.32v12.56
		H1425.76z"/>
	<path d="M1453.26,201.66v25.49h-3.89v-0.94c-1.75,0.89-3.36,1.33-4.82,1.33c-2.35,0-4.07-0.71-5.17-2.12
		c-1.09-1.42-1.64-3.79-1.64-7.13c0-3.33,0.61-5.76,1.82-7.27c1.21-1.51,3.1-2.27,5.67-2.27c0.86,0,2.23,0.16,4.1,0.47v-7.56
		H1453.26z M1448.73,223.41l0.61-0.25V212.5c-1.44-0.24-2.77-0.36-4-0.36c-2.42,0-3.64,2.02-3.64,6.05c0,2.21,0.28,3.74,0.85,4.59
		c0.56,0.85,1.46,1.28,2.68,1.28C1446.46,224.06,1447.62,223.84,1448.73,223.41z"/>
	<path d="M1471.33,214.7v8.21c0.02,0.53,0.16,0.92,0.41,1.17s0.64,0.41,1.17,0.49l-0.11,2.99c-2.06,0-3.66-0.44-4.79-1.33
		c-1.92,0.89-3.85,1.33-5.79,1.33c-3.58,0-5.36-1.91-5.36-5.72c0-1.82,0.49-3.14,1.46-3.96c0.97-0.82,2.47-1.31,4.48-1.48l4.64-0.4
		v-1.3c0-0.96-0.21-1.63-0.63-2.02s-1.04-0.58-1.85-0.58c-1.54,0-3.46,0.1-5.76,0.29l-1.15,0.07l-0.14-2.77
		c2.62-0.62,5.02-0.94,7.22-0.94s3.78,0.47,4.75,1.42S1471.33,212.63,1471.33,214.7z M1463.27,219.16c-1.66,0.14-2.48,1.04-2.48,2.7
		s0.73,2.48,2.2,2.48c1.2,0,2.47-0.19,3.82-0.58l0.65-0.22v-4.79L1463.27,219.16z"/>
	<path d="M1480.19,227.15h-3.92v-18h3.89v1.12c1.7-1.01,3.26-1.51,4.68-1.51c2.09,0,3.61,0.59,4.57,1.76
		c2.18-1.18,4.36-1.76,6.52-1.76s3.68,0.67,4.57,2c0.89,1.33,1.33,3.58,1.33,6.75v9.65h-3.89v-9.54c0-1.94-0.2-3.32-0.59-4.14
		c-0.4-0.82-1.22-1.22-2.47-1.22c-1.08,0-2.24,0.24-3.49,0.72l-0.61,0.25c0.19,0.48,0.29,2.02,0.29,4.61v9.32h-3.89v-9.25
		c0-2.14-0.19-3.61-0.58-4.43c-0.38-0.82-1.22-1.22-2.52-1.22c-1.2,0-2.32,0.24-3.35,0.72l-0.54,0.22V227.15z"/>
</g>
<g>
	<path d="M1302.19,609.16h-4.2v6.39h-3.33V595h7.53c4.66,0,6.99,2.3,6.99,6.9c0,2.36-0.58,4.16-1.75,5.4
		S1304.51,609.16,1302.19,609.16z M1297.99,606.28h4.17c2.4,0,3.6-1.46,3.6-4.38c0-1.4-0.29-2.42-0.87-3.06
		c-0.58-0.64-1.49-0.96-2.73-0.96h-4.17V606.28z"/>
	<path d="M1322.96,605.17v6.84c0.02,0.44,0.13,0.76,0.34,0.97c0.21,0.21,0.54,0.35,0.98,0.41l-0.09,2.49
		c-1.72,0-3.05-0.37-3.99-1.11c-1.6,0.74-3.21,1.11-4.83,1.11c-2.98,0-4.47-1.59-4.47-4.77c0-1.52,0.4-2.62,1.21-3.3
		c0.81-0.68,2.05-1.09,3.74-1.23l3.87-0.33v-1.08c0-0.8-0.18-1.36-0.53-1.68c-0.35-0.32-0.87-0.48-1.54-0.48
		c-1.28,0-2.88,0.08-4.8,0.24l-0.96,0.06l-0.12-2.31c2.18-0.52,4.18-0.78,6.01-0.78s3.15,0.4,3.96,1.19
		C1322.55,602.2,1322.96,603.45,1322.96,605.17z M1316.23,608.89c-1.38,0.12-2.07,0.87-2.07,2.25s0.61,2.07,1.83,2.07
		c1,0,2.06-0.16,3.18-0.48l0.54-0.18v-3.99L1316.23,608.89z"/>
	<path d="M1325.62,600.55h3.48l2.94,5.19l2.97-5.19h3.48l-4.47,7.38l4.47,7.62h-3.48l-2.97-5.13l-2.94,5.13h-3.48l4.35-7.53
		L1325.62,600.55z"/>
	<path d="M1349.05,603.34h-4.14v6.6c0,1.22,0.09,2.03,0.27,2.43s0.64,0.6,1.38,0.6l2.46-0.09l0.15,2.61
		c-1.34,0.26-2.36,0.39-3.06,0.39c-1.7,0-2.86-0.39-3.49-1.17c-0.63-0.78-0.95-2.25-0.95-4.41v-6.96h-1.92v-2.79h1.92v-4.35h3.24
		v4.35h4.14V603.34z"/>
	<path d="M1362.4,612.85l0.84-0.09l0.06,2.43c-2.28,0.46-4.3,0.69-6.06,0.69c-2.22,0-3.82-0.61-4.79-1.83s-1.46-3.17-1.46-5.85
		c0-5.32,2.17-7.98,6.51-7.98c4.2,0,6.3,2.29,6.3,6.87l-0.21,2.34h-9.3c0.02,1.24,0.29,2.15,0.81,2.73
		c0.52,0.58,1.49,0.87,2.91,0.87S1360.9,612.97,1362.4,612.85z M1360.6,606.91c0-1.48-0.24-2.52-0.71-3.11
		c-0.47-0.59-1.27-0.88-2.38-0.88c-1.12,0-1.94,0.31-2.45,0.93c-0.51,0.62-0.78,1.64-0.79,3.06H1360.6z"/>
	<path d="M1366.96,615.55v-15h3.24v1.8c1.7-1.1,3.4-1.81,5.1-2.13v3.27c-1.72,0.34-3.19,0.78-4.41,1.32l-0.66,0.27v10.47H1366.96z"
		/>
	<path d="M1376.41,600.55h3.21l3.18,12.21h0.81l3.18-12.21h3.24l-5.7,21.45h-3.21l1.8-6.45h-2.58L1376.41,600.55z"/>
	<path d="M1403.41,605.17v6.84c0.02,0.44,0.13,0.76,0.34,0.97s0.54,0.35,0.97,0.41l-0.09,2.49c-1.72,0-3.05-0.37-3.99-1.11
		c-1.6,0.74-3.21,1.11-4.83,1.11c-2.98,0-4.47-1.59-4.47-4.77c0-1.52,0.4-2.62,1.21-3.3c0.81-0.68,2.05-1.09,3.73-1.23l3.87-0.33
		v-1.08c0-0.8-0.17-1.36-0.52-1.68c-0.35-0.32-0.87-0.48-1.54-0.48c-1.28,0-2.88,0.08-4.8,0.24l-0.96,0.06l-0.12-2.31
		c2.18-0.52,4.19-0.78,6.02-0.78s3.15,0.4,3.96,1.19S1403.41,603.45,1403.41,605.17z M1396.69,608.89
		c-1.38,0.12-2.07,0.87-2.07,2.25s0.61,2.07,1.83,2.07c1,0,2.06-0.16,3.18-0.48l0.54-0.18v-3.99L1396.69,608.89z"/>
	<path d="M1319.13,651.55V631h5.79l4.59,16.05l4.59-16.05h5.82v20.55h-3.36v-16.86h-0.45l-4.86,16.02h-3.48l-4.86-16.02h-0.45v16.86
		H1319.13z"/>
	<path d="M1355.34,641.17v6.84c0.02,0.44,0.13,0.76,0.35,0.97c0.21,0.21,0.54,0.35,0.97,0.41l-0.09,2.49
		c-1.72,0-3.05-0.37-3.99-1.11c-1.6,0.74-3.21,1.11-4.83,1.11c-2.98,0-4.47-1.59-4.47-4.77c0-1.52,0.41-2.62,1.21-3.3
		c0.81-0.68,2.06-1.09,3.74-1.23l3.87-0.33v-1.08c0-0.8-0.17-1.36-0.52-1.68c-0.35-0.32-0.87-0.48-1.54-0.48
		c-1.28,0-2.88,0.08-4.8,0.24l-0.96,0.06l-0.12-2.31c2.18-0.52,4.19-0.78,6.01-0.78c1.83,0,3.15,0.4,3.96,1.19
		C1354.93,638.2,1355.34,639.45,1355.34,641.17z M1348.62,644.89c-1.38,0.12-2.07,0.87-2.07,2.25s0.61,2.07,1.83,2.07
		c1,0,2.06-0.16,3.18-0.48l0.54-0.18v-3.99L1348.62,644.89z"/>
	<path d="M1359.45,634v-3.45h3.27V634H1359.45z M1359.45,651.55v-15h3.27v15H1359.45z"/>
	<path d="M1369.95,651.55h-3.27v-15h3.24v0.93c1.46-0.84,2.84-1.26,4.14-1.26c2,0,3.36,0.57,4.09,1.7c0.73,1.13,1.09,3,1.09,5.59
		v8.04h-3.24v-7.95c0-1.62-0.17-2.77-0.52-3.45c-0.35-0.68-1.07-1.02-2.15-1.02c-1.02,0-2,0.2-2.94,0.6l-0.45,0.18V651.55z"/>
</g>
<g>
	<path d="M748.9,725.83h-3.36v5.11h-2.66V714.5h6.02c3.73,0,5.59,1.84,5.59,5.52c0,1.89-0.47,3.33-1.4,4.32
		S750.75,725.83,748.9,725.83z M745.54,723.52h3.34c1.92,0,2.88-1.17,2.88-3.5c0-1.12-0.23-1.94-0.7-2.45
		c-0.46-0.51-1.19-0.77-2.18-0.77h-3.34V723.52z"/>
	<path d="M765.51,722.64v5.47c0.02,0.35,0.11,0.61,0.28,0.78c0.17,0.17,0.43,0.28,0.78,0.32l-0.07,1.99c-1.38,0-2.44-0.3-3.19-0.89
		c-1.28,0.59-2.57,0.89-3.86,0.89c-2.38,0-3.58-1.27-3.58-3.82c0-1.22,0.32-2.1,0.97-2.64c0.65-0.54,1.64-0.87,2.99-0.98l3.1-0.26
		v-0.86c0-0.64-0.14-1.09-0.42-1.34c-0.28-0.25-0.69-0.38-1.24-0.38c-1.02,0-2.3,0.06-3.84,0.19l-0.77,0.05l-0.1-1.85
		c1.74-0.42,3.35-0.62,4.81-0.62c1.46,0,2.52,0.32,3.17,0.95C765.18,720.26,765.51,721.26,765.51,722.64z M760.13,725.61
		c-1.1,0.1-1.66,0.7-1.66,1.8c0,1.1,0.49,1.66,1.46,1.66c0.8,0,1.65-0.13,2.54-0.38l0.43-0.14v-3.19L760.13,725.61z"/>
	<path d="M767.64,718.94h2.78l2.35,4.15l2.38-4.15h2.78l-3.58,5.9l3.58,6.1h-2.78l-2.38-4.1l-2.35,4.1h-2.78l3.48-6.02
		L767.64,718.94z"/>
	<path d="M786.39,721.17h-3.31v5.28c0,0.98,0.07,1.62,0.22,1.94s0.51,0.48,1.1,0.48l1.97-0.07l0.12,2.09
		c-1.07,0.21-1.89,0.31-2.45,0.31c-1.36,0-2.29-0.31-2.8-0.94s-0.76-1.8-0.76-3.53v-5.57h-1.54v-2.23h1.54v-3.48h2.59v3.48h3.31
		V721.17z"/>
	<path d="M797.07,728.78l0.67-0.07l0.05,1.94c-1.82,0.37-3.44,0.55-4.85,0.55c-1.78,0-3.05-0.49-3.83-1.46
		c-0.78-0.98-1.16-2.54-1.16-4.68c0-4.26,1.74-6.38,5.21-6.38c3.36,0,5.04,1.83,5.04,5.5l-0.17,1.87h-7.44
		c0.02,0.99,0.23,1.72,0.65,2.18s1.19,0.7,2.33,0.7C794.7,728.92,795.87,728.88,797.07,728.78z M795.63,724.03
		c0-1.18-0.19-2.01-0.56-2.48c-0.38-0.47-1.01-0.71-1.91-0.71s-1.55,0.25-1.96,0.74c-0.41,0.5-0.62,1.31-0.64,2.45H795.63z"/>
	<path d="M800.71,730.94v-12h2.59v1.44c1.36-0.88,2.72-1.45,4.08-1.7v2.62c-1.38,0.27-2.55,0.62-3.53,1.06l-0.53,0.22v8.38H800.71z"
		/>
	<path d="M808.27,718.94h2.57l2.54,9.77h0.65l2.54-9.77h2.59l-4.56,17.16h-2.57l1.44-5.16h-2.06L808.27,718.94z"/>
	<path d="M829.87,722.64v5.47c0.02,0.35,0.11,0.61,0.28,0.78c0.17,0.17,0.43,0.28,0.78,0.32l-0.07,1.99c-1.38,0-2.44-0.3-3.19-0.89
		c-1.28,0.59-2.57,0.89-3.86,0.89c-2.38,0-3.58-1.27-3.58-3.82c0-1.22,0.32-2.1,0.97-2.64c0.65-0.54,1.64-0.87,2.99-0.98l3.1-0.26
		v-0.86c0-0.64-0.14-1.09-0.42-1.34c-0.28-0.25-0.69-0.38-1.24-0.38c-1.02,0-2.3,0.06-3.84,0.19l-0.77,0.05l-0.1-1.85
		c1.74-0.42,3.35-0.62,4.81-0.62c1.46,0,2.52,0.32,3.17,0.95C829.55,720.26,829.87,721.26,829.87,722.64z M824.5,725.61
		c-1.1,0.1-1.66,0.7-1.66,1.8c0,1.1,0.49,1.66,1.46,1.66c0.8,0,1.65-0.13,2.54-0.38l0.43-0.14v-3.19L824.5,725.61z"/>
	<path d="M764.93,759.74v-7.1h-7.1v7.1h-2.66V743.3h2.66v7.01h7.1v-7.01h2.69v16.44H764.93z"/>
	<path d="M779.95,751.44v5.47c0.02,0.35,0.11,0.61,0.28,0.78c0.17,0.17,0.43,0.28,0.78,0.32l-0.07,1.99c-1.38,0-2.44-0.3-3.19-0.89
		c-1.28,0.59-2.57,0.89-3.86,0.89c-2.38,0-3.58-1.27-3.58-3.82c0-1.22,0.32-2.1,0.97-2.64c0.65-0.54,1.64-0.87,2.99-0.98l3.1-0.26
		v-0.86c0-0.64-0.14-1.09-0.42-1.34c-0.28-0.25-0.69-0.38-1.24-0.38c-1.02,0-2.3,0.06-3.84,0.19l-0.77,0.05l-0.1-1.85
		c1.74-0.42,3.35-0.62,4.81-0.62c1.46,0,2.52,0.32,3.17,0.95C779.63,749.06,779.95,750.06,779.95,751.44z M774.58,754.41
		c-1.1,0.1-1.66,0.7-1.66,1.8c0,1.1,0.49,1.66,1.46,1.66c0.8,0,1.65-0.13,2.54-0.38l0.43-0.14v-3.19L774.58,754.41z"/>
	<path d="M783.24,759.74v-12h2.59v1.44c1.36-0.88,2.72-1.45,4.08-1.7v2.62c-1.38,0.27-2.55,0.62-3.53,1.06l-0.53,0.22v8.38H783.24z"
		/>
	<path d="M797.5,747.48c1.65,0,2.84,0.46,3.56,1.38c0.73,0.92,1.09,2.55,1.09,4.88s-0.43,3.96-1.3,4.88
		c-0.86,0.92-2.38,1.38-4.56,1.38c-0.75,0-1.94-0.07-3.58-0.22l-0.82-0.07v-16.97h2.59v5.45C795.6,747.71,796.6,747.48,797.5,747.48
		z M796.3,757.67c1.28,0,2.13-0.3,2.56-0.9c0.42-0.6,0.64-1.62,0.64-3.06c0-1.44-0.18-2.45-0.54-3.04s-0.95-0.88-1.76-0.88
		c-0.77,0-1.54,0.12-2.3,0.36l-0.38,0.12v7.3C795.38,757.64,795.98,757.67,796.3,757.67z"/>
	<path d="M805.43,749.04c0.82-1.04,2.2-1.56,4.12-1.56s3.29,0.52,4.12,1.56c0.82,1.04,1.24,2.6,1.24,4.68c0,2.08-0.4,3.65-1.2,4.7
		c-0.8,1.06-2.18,1.58-4.15,1.58c-1.97,0-3.35-0.53-4.15-1.58c-0.8-1.06-1.2-2.62-1.2-4.7
		C804.19,751.64,804.61,750.08,805.43,749.04z M807.39,756.83c0.37,0.64,1.09,0.96,2.16,0.96s1.79-0.32,2.16-0.96
		c0.37-0.64,0.55-1.69,0.55-3.14s-0.2-2.49-0.59-3.1c-0.39-0.61-1.1-0.91-2.12-0.91s-1.73,0.3-2.12,0.91
		c-0.39,0.61-0.59,1.64-0.59,3.1S807.02,756.2,807.39,756.83z"/>
	<path d="M817.49,759.74v-12h2.59v1.44c1.36-0.88,2.72-1.45,4.08-1.7v2.62c-1.38,0.27-2.55,0.62-3.53,1.06l-0.53,0.22v8.38H817.49z"
		/>
</g>
<g>
	<path d="M943.88,235.27c-3,0-5.04-0.83-6.1-2.49c-1.07-1.66-1.6-4.39-1.6-8.19s0.54-6.5,1.62-8.12c1.08-1.61,3.11-2.42,6.09-2.42
		c1.78,0,3.74,0.25,5.88,0.75l-0.12,2.7c-1.8-0.32-3.6-0.48-5.4-0.48c-1.8,0-3.02,0.54-3.66,1.61c-0.64,1.07-0.96,3.08-0.96,6.03
		c0,2.95,0.31,4.96,0.93,6.03c0.62,1.07,1.83,1.61,3.63,1.61c1.8,0,3.62-0.15,5.46-0.45l0.09,2.76
		C947.67,235.05,945.72,235.27,943.88,235.27z"/>
	<path d="M953.46,221.56c1.03-1.3,2.74-1.95,5.15-1.95s4.11,0.65,5.15,1.95c1.03,1.3,1.54,3.25,1.54,5.85c0,2.6-0.5,4.56-1.5,5.88
		c-1,1.32-2.73,1.98-5.19,1.98s-4.19-0.66-5.19-1.98c-1-1.32-1.5-3.28-1.5-5.88C951.92,224.81,952.43,222.86,953.46,221.56z
		 M955.91,231.31c0.46,0.8,1.36,1.2,2.7,1.2c1.34,0,2.24-0.4,2.7-1.2c0.46-0.8,0.69-2.11,0.69-3.93c0-1.82-0.25-3.11-0.73-3.87
		c-0.49-0.76-1.38-1.14-2.66-1.14c-1.28,0-2.17,0.38-2.66,1.14c-0.49,0.76-0.73,2.05-0.73,3.87
		C955.22,229.2,955.45,230.51,955.91,231.31z"/>
	<path d="M969.36,221.56c1.03-1.3,2.75-1.95,5.15-1.95c2.4,0,4.11,0.65,5.14,1.95s1.54,3.25,1.54,5.85c0,2.6-0.5,4.56-1.5,5.88
		c-1,1.32-2.73,1.98-5.19,1.98s-4.19-0.66-5.19-1.98c-1-1.32-1.5-3.28-1.5-5.88C967.82,224.81,968.33,222.86,969.36,221.56z
		 M971.81,231.31c0.46,0.8,1.36,1.2,2.7,1.2c1.34,0,2.24-0.4,2.7-1.2s0.69-2.11,0.69-3.93c0-1.82-0.25-3.11-0.74-3.87
		s-1.38-1.14-2.65-1.14c-1.28,0-2.17,0.38-2.66,1.14c-0.49,0.76-0.74,2.05-0.74,3.87C971.12,229.2,971.35,230.51,971.81,231.31z"/>
	<path d="M987.71,234.94h-3.27V213.7h3.27v12.27l1.86-0.18l3.54-5.85h3.66l-4.32,7.02l4.56,7.98h-3.69l-3.66-6.33l-1.95,0.21V234.94
		z"/>
	<path d="M999.41,217.39v-3.45h3.27v3.45H999.41z M999.41,234.94v-15h3.27v15H999.41z"/>
	<path d="M1017.32,232.24l0.84-0.09l0.06,2.43c-2.28,0.46-4.3,0.69-6.06,0.69c-2.22,0-3.82-0.61-4.79-1.83
		c-0.97-1.22-1.46-3.17-1.46-5.85c0-5.32,2.17-7.98,6.51-7.98c4.2,0,6.3,2.29,6.3,6.87l-0.21,2.34h-9.3
		c0.02,1.24,0.29,2.15,0.81,2.73c0.52,0.58,1.49,0.87,2.91,0.87S1015.82,232.36,1017.32,232.24z M1015.52,226.3
		c0-1.48-0.24-2.52-0.71-3.11s-1.26-0.88-2.38-0.88s-1.93,0.31-2.44,0.93c-0.51,0.62-0.78,1.64-0.8,3.06H1015.52z"/>
	<path d="M1026.89,217.36v-2.97h15v2.97h-5.79v17.58h-3.36v-17.58H1026.89z"/>
	<path d="M1042.71,221.56c1.03-1.3,2.75-1.95,5.15-1.95c2.4,0,4.11,0.65,5.14,1.95s1.54,3.25,1.54,5.85c0,2.6-0.5,4.56-1.5,5.88
		c-1,1.32-2.73,1.98-5.19,1.98s-4.19-0.66-5.19-1.98c-1-1.32-1.5-3.28-1.5-5.88C1041.17,224.81,1041.68,222.86,1042.71,221.56z
		 M1045.16,231.31c0.46,0.8,1.36,1.2,2.7,1.2c1.34,0,2.24-0.4,2.7-1.2s0.69-2.11,0.69-3.93c0-1.82-0.25-3.11-0.74-3.87
		s-1.38-1.14-2.65-1.14c-1.28,0-2.17,0.38-2.66,1.14c-0.49,0.76-0.74,2.05-0.74,3.87C1044.47,229.2,1044.7,230.51,1045.16,231.31z"
		/>
	<path d="M1056.62,219.94h3.21l2.37,12.21h0.6l2.85-11.91h3.36l2.85,11.91h0.6l2.34-12.21h3.24l-3.18,15h-5.19l-2.34-10.29
		l-2.34,10.29h-5.19L1056.62,219.94z"/>
	<path d="M1084.1,234.94h-3.27v-15h3.24v0.93c1.46-0.84,2.84-1.26,4.14-1.26c2,0,3.36,0.57,4.09,1.7s1.09,3,1.09,5.59v8.04h-3.24
		v-7.95c0-1.62-0.18-2.77-0.53-3.45c-0.35-0.68-1.06-1.02-2.14-1.02c-1.02,0-2,0.2-2.94,0.6l-0.45,0.18V234.94z"/>
	<path d="M986.64,270.94h-7.11v-20.55h7.11c3.16,0,5.32,0.8,6.48,2.4c1.16,1.6,1.74,4.11,1.74,7.53c0,1.74-0.12,3.21-0.34,4.42
		c-0.23,1.21-0.64,2.31-1.21,3.29C992.16,269.97,989.94,270.94,986.64,270.94z M991.41,260.32c0-2.48-0.31-4.27-0.93-5.37
		c-0.62-1.1-1.9-1.65-3.84-1.65h-3.78V268h3.78c1.98,0,3.3-0.73,3.96-2.19c0.32-0.74,0.53-1.53,0.64-2.37
		S991.41,261.56,991.41,260.32z"/>
	<path d="M999.2,257.56c1.03-1.3,2.75-1.95,5.15-1.95c2.4,0,4.11,0.65,5.14,1.95s1.54,3.25,1.54,5.85c0,2.6-0.5,4.56-1.5,5.88
		c-1,1.32-2.73,1.98-5.19,1.98s-4.19-0.66-5.19-1.98c-1-1.32-1.5-3.28-1.5-5.88C997.65,260.81,998.17,258.86,999.2,257.56z
		 M1001.64,267.31c0.46,0.8,1.36,1.2,2.7,1.2c1.34,0,2.24-0.4,2.7-1.2s0.69-2.11,0.69-3.93c0-1.82-0.25-3.11-0.74-3.87
		s-1.38-1.14-2.65-1.14c-1.28,0-2.17,0.38-2.66,1.14c-0.49,0.76-0.74,2.05-0.74,3.87C1000.95,265.2,1001.18,266.51,1001.64,267.31z"
		/>
	<path d="M1017.54,270.94h-3.27v-15h3.24v0.93c1.42-0.84,2.72-1.26,3.9-1.26c1.74,0,3.01,0.49,3.81,1.47
		c1.82-0.98,3.63-1.47,5.43-1.47s3.07,0.55,3.81,1.67s1.11,2.99,1.11,5.63v8.04h-3.24v-7.95c0-1.62-0.17-2.77-0.5-3.45
		c-0.33-0.68-1.01-1.02-2.05-1.02c-0.9,0-1.87,0.2-2.91,0.6l-0.51,0.21c0.16,0.4,0.24,1.68,0.24,3.84v7.77h-3.24v-7.71
		c0-1.78-0.16-3.01-0.48-3.69c-0.32-0.68-1.02-1.02-2.1-1.02c-1,0-1.93,0.2-2.79,0.6l-0.45,0.18V270.94z"/>
	<path d="M1050.09,268.24l0.84-0.09l0.06,2.43c-2.28,0.46-4.3,0.69-6.06,0.69c-2.22,0-3.81-0.61-4.79-1.83
		c-0.97-1.22-1.46-3.17-1.46-5.85c0-5.32,2.17-7.98,6.51-7.98c4.2,0,6.3,2.29,6.3,6.87l-0.21,2.34h-9.3
		c0.02,1.24,0.29,2.15,0.81,2.73c0.52,0.58,1.49,0.87,2.91,0.87S1048.59,268.36,1050.09,268.24z M1048.29,262.3
		c0-1.48-0.24-2.52-0.71-3.11s-1.27-0.88-2.38-0.88c-1.12,0-1.94,0.31-2.45,0.93c-0.51,0.62-0.78,1.64-0.79,3.06H1048.29z"/>
</g>
<g>
	<rect x="1078.19" y="622.39" class="st7" width="33.68" height="39.48"/>
</g>
<g>
	<path d="M974.6,725.77h-3.36v5.11h-2.66v-16.44h6.02c3.73,0,5.59,1.84,5.59,5.52c0,1.89-0.47,3.33-1.4,4.32
		C977.86,725.28,976.46,725.77,974.6,725.77z M971.24,723.47h3.34c1.92,0,2.88-1.17,2.88-3.5c0-1.12-0.23-1.94-0.7-2.45
		c-0.46-0.51-1.19-0.77-2.18-0.77h-3.34V723.47z"/>
	<path d="M991.21,722.58v5.47c0.02,0.35,0.11,0.61,0.28,0.78s0.43,0.28,0.78,0.32l-0.07,1.99c-1.38,0-2.44-0.3-3.19-0.89
		c-1.28,0.59-2.57,0.89-3.86,0.89c-2.38,0-3.58-1.27-3.58-3.82c0-1.22,0.32-2.1,0.97-2.64c0.65-0.54,1.64-0.87,2.99-0.98l3.1-0.26
		v-0.86c0-0.64-0.14-1.09-0.42-1.34c-0.28-0.25-0.69-0.38-1.24-0.38c-1.02,0-2.3,0.06-3.84,0.19l-0.77,0.05l-0.1-1.85
		c1.74-0.42,3.35-0.62,4.81-0.62s2.52,0.32,3.17,0.95C990.89,720.2,991.21,721.2,991.21,722.58z M985.84,725.56
		c-1.1,0.1-1.66,0.7-1.66,1.8c0,1.1,0.49,1.66,1.46,1.66c0.8,0,1.65-0.13,2.54-0.38l0.43-0.14v-3.19L985.84,725.56z"/>
	<path d="M993.35,718.88h2.78l2.35,4.15l2.38-4.15h2.78l-3.58,5.9l3.58,6.1h-2.78l-2.38-4.1l-2.35,4.1h-2.78l3.48-6.02
		L993.35,718.88z"/>
	<path d="M1012.09,721.12h-3.31v5.28c0,0.98,0.07,1.62,0.22,1.94c0.14,0.32,0.51,0.48,1.1,0.48l1.97-0.07l0.12,2.09
		c-1.07,0.21-1.89,0.31-2.45,0.31c-1.36,0-2.29-0.31-2.8-0.94s-0.76-1.8-0.76-3.53v-5.57h-1.54v-2.23h1.54v-3.48h2.59v3.48h3.31
		V721.12z"/>
	<path d="M1022.77,728.72l0.67-0.07l0.05,1.94c-1.82,0.37-3.44,0.55-4.85,0.55c-1.78,0-3.05-0.49-3.83-1.46
		c-0.78-0.98-1.16-2.54-1.16-4.68c0-4.26,1.74-6.38,5.21-6.38c3.36,0,5.04,1.83,5.04,5.5l-0.17,1.87h-7.44
		c0.02,0.99,0.23,1.72,0.65,2.18s1.19,0.7,2.33,0.7C1020.4,728.87,1021.57,728.82,1022.77,728.72z M1021.33,723.97
		c0-1.18-0.19-2.01-0.56-2.48c-0.38-0.47-1.01-0.71-1.91-0.71c-0.9,0-1.55,0.25-1.96,0.74c-0.41,0.5-0.62,1.31-0.64,2.45H1021.33z"
		/>
	<path d="M1026.42,730.88v-12h2.59v1.44c1.36-0.88,2.72-1.45,4.08-1.7v2.62c-1.38,0.27-2.55,0.62-3.53,1.06l-0.53,0.22v8.38H1026.42
		z"/>
	<path d="M1033.98,718.88h2.57l2.54,9.77h0.65l2.54-9.77h2.59l-4.56,17.16h-2.57l1.44-5.16h-2.06L1033.98,718.88z"/>
	<path d="M1055.58,722.58v5.47c0.02,0.35,0.11,0.61,0.28,0.78c0.17,0.17,0.43,0.28,0.78,0.32l-0.07,1.99c-1.38,0-2.44-0.3-3.19-0.89
		c-1.28,0.59-2.57,0.89-3.86,0.89c-2.38,0-3.58-1.27-3.58-3.82c0-1.22,0.32-2.1,0.97-2.64c0.65-0.54,1.64-0.87,2.99-0.98l3.1-0.26
		v-0.86c0-0.64-0.14-1.09-0.42-1.34c-0.28-0.25-0.69-0.38-1.24-0.38c-1.02,0-2.3,0.06-3.84,0.19l-0.77,0.05l-0.1-1.85
		c1.74-0.42,3.35-0.62,4.81-0.62c1.46,0,2.52,0.32,3.17,0.95C1055.25,720.2,1055.58,721.2,1055.58,722.58z M1050.2,725.56
		c-1.1,0.1-1.66,0.7-1.66,1.8c0,1.1,0.49,1.66,1.46,1.66c0.8,0,1.65-0.13,2.54-0.38l0.43-0.14v-3.19L1050.2,725.56z"/>
	<path d="M988.49,743.24h2.81l2.35,14.14h0.5l3.12-14.09h3.12l3.12,14.09h0.53l2.35-14.14h2.81l-3.24,16.44h-4.3l-2.83-13.18
		l-2.81,13.18h-4.32L988.49,743.24z"/>
	<path d="M1019.42,757.52l0.67-0.07l0.05,1.94c-1.82,0.37-3.44,0.55-4.85,0.55c-1.78,0-3.05-0.49-3.83-1.46
		c-0.78-0.98-1.16-2.54-1.16-4.68c0-4.26,1.74-6.38,5.21-6.38c3.36,0,5.04,1.83,5.04,5.5l-0.17,1.87h-7.44
		c0.02,0.99,0.23,1.72,0.65,2.18s1.19,0.7,2.33,0.7C1017.06,757.67,1018.22,757.62,1019.42,757.52z M1017.98,752.77
		c0-1.18-0.19-2.01-0.56-2.48c-0.38-0.47-1.01-0.71-1.91-0.71c-0.9,0-1.55,0.25-1.96,0.74c-0.41,0.5-0.62,1.31-0.64,2.45H1017.98z"
		/>
	<path d="M1031.4,750.16c-1.89-0.26-3.26-0.38-4.1-0.38c-0.85,0-1.44,0.1-1.76,0.3c-0.33,0.2-0.49,0.52-0.49,0.95
		s0.18,0.74,0.54,0.91c0.36,0.18,1.21,0.38,2.54,0.61c1.33,0.23,2.28,0.6,2.84,1.09c0.56,0.5,0.84,1.38,0.84,2.64
		c0,1.26-0.4,2.19-1.21,2.78c-0.81,0.59-1.99,0.89-3.54,0.89c-0.98,0-2.21-0.14-3.7-0.41l-0.74-0.12l0.1-2.18
		c1.92,0.26,3.3,0.38,4.15,0.38s1.45-0.1,1.81-0.31c0.36-0.21,0.54-0.55,0.54-1.03c0-0.48-0.17-0.81-0.52-1
		c-0.34-0.18-1.17-0.38-2.47-0.6c-1.3-0.22-2.26-0.56-2.87-1.02c-0.61-0.46-0.91-1.31-0.91-2.54c0-1.23,0.42-2.15,1.26-2.76
		c0.84-0.61,1.92-0.91,3.23-0.91c1.02,0,2.28,0.13,3.77,0.38l0.74,0.14L1031.4,750.16z"/>
	<path d="M1040.78,749.92h-3.31v5.28c0,0.98,0.07,1.62,0.22,1.94c0.14,0.32,0.51,0.48,1.1,0.48l1.97-0.07l0.12,2.09
		c-1.07,0.21-1.89,0.31-2.45,0.31c-1.36,0-2.29-0.31-2.8-0.94s-0.76-1.8-0.76-3.53v-5.57h-1.54v-2.23h1.54v-3.48h2.59v3.48h3.31
		V749.92z"/>
</g>
<g class="st8">
	<path class="st9" d="M1884.58,1080H35.42C15.86,1080,0,1064.14,0,1044.58V35.42C0,15.86,15.86,0,35.42,0h1849.16
		c19.56,0,35.42,15.86,35.42,35.42v1009.16C1920,1064.14,1904.14,1080,1884.58,1080z"/>
</g>
<g>
	<g>
		<path class="st5" d="M-277.19-94.92c1.93,0,1.93-3,0-3C-279.12-97.92-279.13-94.92-277.19-94.92L-277.19-94.92z"/>
	</g>
</g>
<g>
	<path d="M829.01,884.26v11.71h-5.33v-32.88h12.48c7.42,0,11.14,3.49,11.14,10.46c0,4.67-1.79,7.84-5.38,9.5l5.42,12.91h-5.86
		l-4.75-11.71H829.01z M841.82,873.6c0-3.94-1.89-5.9-5.66-5.9h-7.15v11.95h7.25c1.92,0,3.33-0.55,4.22-1.66
		C841.37,876.89,841.82,875.42,841.82,873.6z"/>
	<path d="M870.29,879.36v10.94c0.03,0.7,0.22,1.22,0.55,1.56s0.86,0.55,1.56,0.65l-0.14,3.98c-2.75,0-4.88-0.59-6.38-1.78
		c-2.56,1.18-5.14,1.78-7.73,1.78c-4.77,0-7.15-2.54-7.15-7.63c0-2.43,0.65-4.19,1.94-5.28c1.3-1.09,3.29-1.74,5.98-1.97l6.19-0.53
		v-1.73c0-1.28-0.28-2.18-0.84-2.69c-0.56-0.51-1.38-0.77-2.47-0.77c-2.05,0-4.61,0.13-7.68,0.38l-1.54,0.1l-0.19-3.7
		c3.49-0.83,6.7-1.25,9.62-1.25c2.93,0,5.04,0.63,6.34,1.9S870.29,876.61,870.29,879.36z M859.53,885.31
		c-2.21,0.19-3.31,1.39-3.31,3.6c0,2.21,0.98,3.31,2.93,3.31c1.6,0,3.3-0.25,5.09-0.77l0.86-0.29v-6.38L859.53,885.31z"/>
	<path d="M876.86,867.89v-5.52h5.23v5.52H876.86z M876.86,895.97v-24h5.23v24H876.86z"/>
	<path d="M888.72,895.97v-33.98h5.23v33.98H888.72z"/>
	<path d="M921.4,867.22c-4.06,0-6.1,1.42-6.1,4.27c0,1.47,0.48,2.52,1.44,3.14s3.08,1.39,6.36,2.3c3.28,0.91,5.59,2,6.94,3.26
		c1.34,1.27,2.02,3.26,2.02,5.98c0,3.46-0.98,6.04-2.95,7.75c-1.97,1.71-4.65,2.57-8.04,2.57c-2.72,0-5.73-0.32-9.02-0.96
		l-1.73-0.34l0.53-4.27c4.32,0.58,7.62,0.86,9.89,0.86c3.97,0,5.95-1.76,5.95-5.28c0-1.38-0.45-2.39-1.34-3.05
		c-0.9-0.66-2.91-1.38-6.05-2.16c-3.14-0.78-5.47-1.86-7.01-3.24c-1.54-1.38-2.3-3.55-2.3-6.53c0-2.98,0.97-5.22,2.9-6.74
		c1.94-1.52,4.62-2.28,8.04-2.28c2.46,0,5.38,0.29,8.74,0.86l1.68,0.29l-0.43,4.32C926.43,867.47,923.26,867.22,921.4,867.22z"/>
	<path d="M934.6,871.97h5.14l5.09,19.54h1.3l5.09-19.54h5.18l-9.12,34.32h-5.14l2.88-10.32h-4.13L934.6,871.97z"/>
	<path d="M976.75,876.91c-3.78-0.51-6.51-0.77-8.21-0.77c-1.7,0-2.87,0.2-3.53,0.6s-0.98,1.03-0.98,1.9s0.36,1.47,1.08,1.82
		c0.72,0.35,2.42,0.76,5.09,1.22c2.67,0.46,4.57,1.19,5.69,2.18c1.12,0.99,1.68,2.75,1.68,5.28s-0.81,4.38-2.42,5.57
		c-1.62,1.18-3.98,1.78-7.08,1.78c-1.95,0-4.42-0.27-7.39-0.82l-1.49-0.24l0.19-4.37c3.84,0.51,6.61,0.77,8.3,0.77
		c1.7,0,2.9-0.21,3.62-0.62c0.72-0.42,1.08-1.1,1.08-2.06c0-0.96-0.34-1.63-1.03-1.99c-0.69-0.37-2.34-0.77-4.94-1.2
		c-2.61-0.43-4.52-1.11-5.74-2.04c-1.22-0.93-1.82-2.62-1.82-5.09c0-2.46,0.84-4.3,2.52-5.52c1.68-1.22,3.83-1.82,6.46-1.82
		c2.05,0,4.56,0.26,7.54,0.77l1.49,0.29L976.75,876.91z"/>
	<path d="M995.52,876.43h-6.62v10.56c0,1.95,0.14,3.25,0.43,3.89c0.29,0.64,1.02,0.96,2.21,0.96l3.94-0.14l0.24,4.18
		c-2.14,0.42-3.78,0.63-4.9,0.63c-2.72,0-4.58-0.63-5.59-1.87c-1.01-1.25-1.51-3.6-1.51-7.05v-11.14h-3.07v-4.46h3.07v-6.96h5.18
		v6.96h6.62V876.43z"/>
	<path d="M1016.88,891.65l1.34-0.14l0.1,3.89c-3.65,0.74-6.88,1.1-9.7,1.1c-3.55,0-6.11-0.98-7.66-2.93
		c-1.55-1.95-2.33-5.07-2.33-9.36c0-8.51,3.47-12.77,10.42-12.77c6.72,0,10.08,3.67,10.08,10.99l-0.34,3.74h-14.88
		c0.03,1.98,0.46,3.44,1.3,4.37c0.83,0.93,2.38,1.39,4.66,1.39C1012.14,891.94,1014.47,891.84,1016.88,891.65z M1013.99,882.14
		c0-2.37-0.38-4.02-1.13-4.97c-0.75-0.94-2.03-1.42-3.82-1.42c-1.79,0-3.1,0.5-3.91,1.49s-1.24,2.62-1.27,4.9H1013.99z"/>
	<path d="M1029.4,895.97h-5.23v-24h5.18v1.49c2.27-1.34,4.35-2.02,6.24-2.02c2.79,0,4.82,0.79,6.1,2.35
		c2.91-1.57,5.81-2.35,8.69-2.35c2.88,0,4.91,0.89,6.1,2.66c1.18,1.78,1.78,4.78,1.78,9v12.86h-5.18v-12.72
		c0-2.59-0.26-4.43-0.79-5.52c-0.53-1.09-1.62-1.63-3.29-1.63c-1.44,0-2.99,0.32-4.66,0.96l-0.82,0.34
		c0.25,0.64,0.38,2.69,0.38,6.14v12.43h-5.18v-12.34c0-2.85-0.26-4.82-0.77-5.9c-0.51-1.09-1.63-1.63-3.36-1.63
		c-1.6,0-3.09,0.32-4.46,0.96l-0.72,0.29V895.97z"/>
	<path d="M1075.58,895.97v-32.88h9.26l7.34,25.68l7.34-25.68h9.31v32.88h-5.38v-26.98h-0.72l-7.78,25.63h-5.57l-7.78-25.63h-0.72
		v26.98H1075.58z"/>
	<path d="M1133.51,879.36v10.94c0.03,0.7,0.21,1.22,0.55,1.56s0.86,0.55,1.56,0.65l-0.14,3.98c-2.75,0-4.88-0.59-6.38-1.78
		c-2.56,1.18-5.14,1.78-7.73,1.78c-4.77,0-7.15-2.54-7.15-7.63c0-2.43,0.65-4.19,1.94-5.28s3.29-1.74,5.98-1.97l6.19-0.53v-1.73
		c0-1.28-0.28-2.18-0.84-2.69c-0.56-0.51-1.38-0.77-2.47-0.77c-2.05,0-4.61,0.13-7.68,0.38l-1.54,0.1l-0.19-3.7
		c3.49-0.83,6.7-1.25,9.62-1.25c2.93,0,5.04,0.63,6.34,1.9C1132.87,874.6,1133.51,876.61,1133.51,879.36z M1122.76,885.31
		c-2.21,0.19-3.31,1.39-3.31,3.6c0,2.21,0.98,3.31,2.93,3.31c1.6,0,3.29-0.25,5.09-0.77l0.86-0.29v-6.38L1122.76,885.31z"/>
	<path d="M1140.09,906.29v-34.32h5.18v1.49c2.21-1.34,4.27-2.02,6.19-2.02c3.17,0,5.49,0.97,6.96,2.9c1.47,1.94,2.21,5.18,2.21,9.74
		s-0.84,7.77-2.52,9.62c-1.68,1.86-4.42,2.78-8.23,2.78c-1.31,0-2.83-0.14-4.56-0.43v10.22H1140.09z M1150.55,876.1
		c-1.5,0-3.01,0.34-4.51,1.01l-0.72,0.34v14.16c1.28,0.26,2.69,0.38,4.22,0.38c2.18,0,3.68-0.63,4.51-1.87s1.25-3.38,1.25-6.38
		C1155.3,878.64,1153.72,876.1,1150.55,876.1z"/>
	<path d="M885.43,953.57l8.11-32.88h10.61l8.16,32.88h-5.38l-1.78-7.06h-12.62l-1.78,7.06H885.43z M897.67,925.15l-4.08,16.66h10.51
		l-4.03-16.66H897.67z"/>
	<path d="M916.39,963.89v-34.32h5.18v1.49c2.21-1.34,4.27-2.02,6.19-2.02c3.17,0,5.49,0.97,6.96,2.9c1.47,1.94,2.21,5.18,2.21,9.74
		c0,4.56-0.84,7.77-2.52,9.63c-1.68,1.86-4.42,2.78-8.23,2.78c-1.31,0-2.83-0.14-4.56-0.43v10.22H916.39z M926.85,933.7
		c-1.5,0-3.01,0.34-4.51,1.01l-0.72,0.34v14.16c1.28,0.26,2.69,0.38,4.22,0.38c2.18,0,3.68-0.62,4.51-1.87
		c0.83-1.25,1.25-3.38,1.25-6.38C931.6,936.24,930.02,933.7,926.85,933.7z"/>
	<path d="M942.16,953.57v-24h5.18v2.88c2.72-1.76,5.44-2.89,8.16-3.41v5.23c-2.75,0.54-5.1,1.25-7.06,2.11l-1.06,0.43v16.75H942.16z
		"/>
	<path d="M959.49,925.49v-5.52h5.23v5.52H959.49z M959.49,953.57v-24h5.23v24H959.49z"/>
	<path d="M971.35,953.57v-33.98h5.23v33.98H971.35z"/>
	<path d="M1014.21,953.57h-20.4v-4.56l7.82-8.06c2.37-2.43,4.03-4.34,4.99-5.71c0.96-1.38,1.44-2.89,1.44-4.54
		c0-1.65-0.46-2.82-1.39-3.53c-0.93-0.7-2.45-1.06-4.56-1.06c-1.98,0-4.18,0.22-6.58,0.67l-1.2,0.19l-0.34-4.22
		c3.1-0.93,6.32-1.39,9.65-1.39c6.62,0,9.94,2.95,9.94,8.83c0,2.3-0.5,4.3-1.51,6c-1.01,1.7-2.81,3.74-5.4,6.14l-6.77,6.58h14.3
		V953.57z"/>
	<path d="M1021.91,925.22c2-2.58,5-3.86,9-3.86c4,0,6.99,1.28,8.98,3.84c1.98,2.56,2.98,6.79,2.98,12.7c0,5.9-1,10.08-3,12.53
		c-2,2.45-4.99,3.67-8.98,3.67s-6.98-1.22-8.98-3.65c-2-2.43-3-6.6-3-12.5C1018.91,932.04,1019.91,927.8,1021.91,925.22z
		 M1035.86,928.63c-0.99-1.74-2.64-2.62-4.94-2.62c-2.3,0-3.96,0.87-4.97,2.62c-1.01,1.75-1.51,4.81-1.51,9.19s0.52,7.42,1.56,9.1
		c1.04,1.68,2.69,2.52,4.94,2.52s3.89-0.84,4.9-2.52s1.51-4.71,1.51-9.1S1036.85,930.38,1035.86,928.63z"/>
	<path d="M1067.97,953.57h-20.4v-4.56l7.82-8.06c2.37-2.43,4.03-4.34,4.99-5.71c0.96-1.38,1.44-2.89,1.44-4.54
		c0-1.65-0.46-2.82-1.39-3.53c-0.93-0.7-2.45-1.06-4.56-1.06c-1.98,0-4.18,0.22-6.58,0.67l-1.2,0.19l-0.34-4.22
		c3.1-0.93,6.32-1.39,9.65-1.39c6.62,0,9.94,2.95,9.94,8.83c0,2.3-0.5,4.3-1.51,6c-1.01,1.7-2.81,3.74-5.4,6.14l-6.77,6.58h14.3
		V953.57z"/>
	<path d="M1075.67,925.22c2-2.58,5-3.86,9-3.86c4,0,6.99,1.28,8.98,3.84c1.98,2.56,2.98,6.79,2.98,12.7c0,5.9-1,10.08-3,12.53
		c-2,2.45-4.99,3.67-8.98,3.67s-6.98-1.22-8.98-3.65c-2-2.43-3-6.6-3-12.5C1072.67,932.04,1073.67,927.8,1075.67,925.22z
		 M1089.62,928.63c-0.99-1.74-2.64-2.62-4.94-2.62c-2.3,0-3.96,0.87-4.97,2.62c-1.01,1.75-1.51,4.81-1.51,9.19s0.52,7.42,1.56,9.1
		c1.04,1.68,2.69,2.52,4.94,2.52s3.89-0.84,4.9-2.52s1.51-4.71,1.51-9.1S1090.61,930.38,1089.62,928.63z"/>
</g>
<g>
	<line class="st10" x1="134" y1="445" x2="219" y2="445"/>
</g>
<line class="st11" x1="134" y1="491" x2="219" y2="491"/>
<path class="st10" d="M-202,392"/>
<g>
	<path d="M241.78,492h-5.04v7.67h-4v-24.66h9.04c5.59,0,8.39,2.76,8.39,8.28c0,2.83-0.7,4.99-2.11,6.48
		C246.66,491.26,244.56,492,241.78,492z M236.74,488.54h5c2.88,0,4.32-1.75,4.32-5.26c0-1.68-0.35-2.9-1.04-3.67
		c-0.7-0.77-1.79-1.15-3.28-1.15h-5V488.54z"/>
	<path d="M266.37,496.43l1.01-0.11l0.07,2.92c-2.74,0.55-5.16,0.83-7.27,0.83c-2.66,0-4.58-0.73-5.74-2.2s-1.75-3.8-1.75-7.02
		c0-6.38,2.6-9.58,7.81-9.58c5.04,0,7.56,2.75,7.56,8.24l-0.25,2.81h-11.16c0.02,1.49,0.35,2.58,0.97,3.28
		c0.62,0.7,1.79,1.04,3.49,1.04C262.81,496.64,264.57,496.57,266.37,496.43z M264.21,489.3c0-1.78-0.28-3.02-0.85-3.73
		c-0.56-0.71-1.52-1.06-2.86-1.06c-1.34,0-2.32,0.37-2.93,1.12c-0.61,0.74-0.93,1.97-0.95,3.67H264.21z"/>
	<path d="M275.76,499.67h-3.92v-18h3.89v1.12c1.75-1.01,3.41-1.51,4.97-1.51c2.4,0,4.04,0.68,4.91,2.03
		c0.88,1.36,1.31,3.59,1.31,6.71v9.65h-3.89v-9.54c0-1.94-0.21-3.32-0.63-4.14c-0.42-0.82-1.28-1.22-2.57-1.22
		c-1.22,0-2.4,0.24-3.53,0.72l-0.54,0.22V499.67z"/>
	<path d="M291.71,499.67v-25.49h3.92v25.49H291.71z"/>
	<path d="M300.6,478.61v-4.14h3.92v4.14H300.6z M300.6,499.67v-18h3.92v18H300.6z"/>
	<path d="M322.6,487.21v8.21c0.02,0.53,0.16,0.92,0.41,1.17s0.64,0.41,1.17,0.49l-0.11,2.99c-2.06,0-3.66-0.44-4.79-1.33
		c-1.92,0.89-3.85,1.33-5.8,1.33c-3.58,0-5.36-1.91-5.36-5.72c0-1.82,0.49-3.14,1.46-3.96c0.97-0.82,2.47-1.31,4.48-1.48l4.64-0.4
		v-1.3c0-0.96-0.21-1.63-0.63-2.02c-0.42-0.38-1.04-0.58-1.85-0.58c-1.54,0-3.46,0.1-5.76,0.29l-1.15,0.07l-0.14-2.77
		c2.62-0.62,5.02-0.94,7.22-0.94c2.2,0,3.78,0.47,4.75,1.42C322.11,483.64,322.6,485.15,322.6,487.21z M314.53,491.68
		c-1.66,0.14-2.48,1.04-2.48,2.7s0.73,2.48,2.2,2.48c1.2,0,2.47-0.19,3.82-0.58l0.65-0.22v-4.79L314.53,491.68z"/>
	<path d="M331.45,499.67h-3.92v-18h3.89v1.12c1.7-1.01,3.26-1.51,4.68-1.51c2.09,0,3.61,0.59,4.57,1.76
		c2.18-1.18,4.36-1.76,6.52-1.76c2.16,0,3.68,0.67,4.57,2c0.89,1.33,1.33,3.58,1.33,6.75v9.65h-3.89v-9.54
		c0-1.94-0.2-3.32-0.59-4.14c-0.4-0.82-1.22-1.22-2.47-1.22c-1.08,0-2.24,0.24-3.49,0.72l-0.61,0.25c0.19,0.48,0.29,2.02,0.29,4.61
		v9.32h-3.89v-9.25c0-2.14-0.19-3.61-0.58-4.43c-0.38-0.82-1.22-1.22-2.52-1.22c-1.2,0-2.32,0.24-3.35,0.72l-0.54,0.22V499.67z"/>
	<path d="M379.91,499.67h-13.82v-24.66h4v21.1h9.83V499.67z"/>
	<path d="M382.72,478.61v-4.14h3.92v4.14H382.72z M382.72,499.67v-18h3.92v18H382.72z"/>
	<path d="M395.31,499.67h-3.92v-18h3.89v1.12c1.75-1.01,3.41-1.51,4.97-1.51c2.4,0,4.04,0.68,4.91,2.03
		c0.88,1.36,1.31,3.59,1.31,6.71v9.65h-3.89v-9.54c0-1.94-0.21-3.32-0.63-4.14c-0.42-0.82-1.28-1.22-2.57-1.22
		c-1.22,0-2.4,0.24-3.53,0.72l-0.54,0.22V499.67z"/>
	<path d="M423.86,496.43l1.01-0.11l0.07,2.92c-2.74,0.55-5.16,0.83-7.27,0.83c-2.66,0-4.58-0.73-5.74-2.2s-1.75-3.8-1.75-7.02
		c0-6.38,2.6-9.58,7.81-9.58c5.04,0,7.56,2.75,7.56,8.24l-0.25,2.81h-11.16c0.02,1.49,0.35,2.58,0.97,3.28
		c0.62,0.7,1.79,1.04,3.49,1.04C420.31,496.64,422.06,496.57,423.86,496.43z M421.7,489.3c0-1.78-0.28-3.02-0.85-3.73
		c-0.56-0.71-1.52-1.06-2.86-1.06c-1.34,0-2.32,0.37-2.93,1.12c-0.61,0.74-0.93,1.97-0.95,3.67H421.7z"/>
</g>
<g>
	<path d="M232.92,457.67v-24.66h6.98l7.49,21.13h0.54v-21.13h4v24.66h-6.84l-7.67-21.17h-0.5v21.17H232.92z"/>
	<path d="M257.92,441.61c1.24-1.56,3.29-2.34,6.17-2.34s4.94,0.78,6.17,2.34c1.24,1.56,1.85,3.9,1.85,7.02c0,3.12-0.6,5.47-1.8,7.06
		c-1.2,1.58-3.28,2.38-6.23,2.38s-5.03-0.79-6.23-2.38c-1.2-1.58-1.8-3.94-1.8-7.06C256.07,445.51,256.69,443.17,257.92,441.61z
		 M260.86,453.31c0.55,0.96,1.63,1.44,3.24,1.44c1.61,0,2.69-0.48,3.24-1.44c0.55-0.96,0.83-2.53,0.83-4.72
		c0-2.18-0.29-3.73-0.88-4.64c-0.59-0.91-1.65-1.37-3.19-1.37c-1.54,0-2.6,0.46-3.19,1.37c-0.59,0.91-0.88,2.46-0.88,4.64
		C260.03,450.78,260.31,452.35,260.86,453.31z"/>
	<path d="M276.01,457.67v-18h3.89v2.16c2.04-1.32,4.08-2.17,6.12-2.56v3.92c-2.06,0.41-3.83,0.94-5.29,1.58l-0.79,0.32v12.56H276.01
		z"/>
	<path d="M298.69,443.02h-4.97v7.92c0,1.46,0.11,2.44,0.32,2.92c0.22,0.48,0.77,0.72,1.66,0.72l2.95-0.11l0.18,3.13
		c-1.61,0.31-2.83,0.47-3.67,0.47c-2.04,0-3.44-0.47-4.19-1.4c-0.76-0.94-1.13-2.7-1.13-5.29v-8.35h-2.3v-3.35h2.3v-5.22h3.89v5.22
		h4.97V443.02z"/>
	<path d="M305.82,457.67h-3.92v-25.49h3.92v8.42c1.78-0.89,3.42-1.33,4.93-1.33c2.4,0,4.04,0.68,4.91,2.03
		c0.88,1.36,1.31,3.59,1.31,6.71v9.65h-3.92v-9.54c0-1.94-0.2-3.32-0.61-4.14c-0.41-0.82-1.27-1.22-2.59-1.22
		c-1.15,0-2.3,0.19-3.46,0.58l-0.58,0.22V457.67z"/>
	<path d="M334.37,454.43l1.01-0.11l0.07,2.92c-2.74,0.55-5.16,0.83-7.27,0.83c-2.66,0-4.58-0.73-5.74-2.2s-1.75-3.8-1.75-7.02
		c0-6.38,2.6-9.58,7.81-9.58c5.04,0,7.56,2.75,7.56,8.24l-0.25,2.81h-11.16c0.02,1.49,0.35,2.58,0.97,3.28
		c0.62,0.7,1.79,1.04,3.49,1.04C330.82,454.64,332.57,454.57,334.37,454.43z M332.21,447.3c0-1.78-0.28-3.02-0.85-3.73
		c-0.56-0.71-1.52-1.06-2.86-1.06c-1.34,0-2.32,0.37-2.93,1.12c-0.61,0.74-0.93,1.97-0.95,3.67H332.21z"/>
	<path d="M339.84,457.67v-18h3.89v2.16c2.04-1.32,4.08-2.17,6.12-2.56v3.92c-2.06,0.41-3.83,0.94-5.29,1.58l-0.79,0.32v12.56H339.84
		z"/>
	<path d="M356.76,457.67h-3.92v-18h3.89v1.12c1.75-1.01,3.41-1.51,4.97-1.51c2.4,0,4.04,0.68,4.91,2.03
		c0.88,1.36,1.31,3.59,1.31,6.71v9.65h-3.89v-9.54c0-1.94-0.21-3.32-0.63-4.14c-0.42-0.82-1.28-1.22-2.57-1.22
		c-1.22,0-2.4,0.24-3.53,0.72l-0.54,0.22V457.67z"/>
	<path d="M394.7,457.67h-13.82v-24.66h4v21.1h9.83V457.67z"/>
	<path d="M397.51,436.61v-4.14h3.92v4.14H397.51z M397.51,457.67v-18h3.92v18H397.51z"/>
	<path d="M410.11,457.67h-3.92v-18h3.89v1.12c1.75-1.01,3.41-1.51,4.97-1.51c2.4,0,4.04,0.68,4.91,2.03
		c0.88,1.36,1.31,3.59,1.31,6.71v9.65h-3.89v-9.54c0-1.94-0.21-3.32-0.63-4.14c-0.42-0.82-1.28-1.22-2.57-1.22
		c-1.22,0-2.4,0.24-3.53,0.72l-0.54,0.22V457.67z"/>
	<path d="M438.66,454.43l1.01-0.11l0.07,2.92c-2.74,0.55-5.16,0.83-7.27,0.83c-2.66,0-4.58-0.73-5.74-2.2s-1.75-3.8-1.75-7.02
		c0-6.38,2.6-9.58,7.81-9.58c5.04,0,7.56,2.75,7.56,8.24l-0.25,2.81h-11.16c0.02,1.49,0.35,2.58,0.97,3.28
		c0.62,0.7,1.79,1.04,3.49,1.04C435.11,454.64,436.86,454.57,438.66,454.43z M436.5,447.3c0-1.78-0.28-3.02-0.85-3.73
		c-0.56-0.71-1.52-1.06-2.86-1.06c-1.34,0-2.32,0.37-2.93,1.12c-0.61,0.74-0.93,1.97-0.95,3.67H436.5z"/>
</g>
<g>
	<path class="st11" d="M468,505c0,11-9,20.07-20,20.16l-324,2.67c-11,0.09-20-8.84-20-19.84v-80c0-11,9-20,20-20h324
		c11,0,20,9,20,20V505z"/>
</g>
<g>
	<path d="M262.71,123.95v-4.23h21.34v4.23h-8.24v25.02h-4.78v-25.02H262.71z"/>
	<path d="M292.72,138.55v10.42h-4.74v-29.24h11.1c6.6,0,9.9,3.1,9.9,9.31c0,4.16-1.59,6.97-4.78,8.45l4.82,11.48h-5.21l-4.23-10.42
		H292.72z M304.11,129.07c0-3.5-1.68-5.25-5.04-5.25h-6.36v10.63h6.45c1.71,0,2.96-0.49,3.76-1.47
		C303.71,132,304.11,130.69,304.11,129.07z"/>
	<path d="M311.54,148.97l7.21-29.24h9.43l7.26,29.24h-4.78l-1.58-6.28h-11.23l-1.58,6.28H311.54z M322.43,123.69l-3.63,14.81h9.35
		l-3.59-14.81H322.43z"/>
	<path d="M339.63,148.97v-29.24h8.28l8.88,25.06h0.64v-25.06h4.74v29.24h-8.11l-9.09-25.1h-0.6v25.1H339.63z"/>
	<path d="M377.5,123.4c-3.61,0-5.42,1.27-5.42,3.8c0,1.31,0.43,2.24,1.28,2.8c0.85,0.56,2.74,1.24,5.66,2.05
		c2.92,0.81,4.97,1.78,6.17,2.9c1.2,1.12,1.79,2.9,1.79,5.31c0,3.07-0.88,5.37-2.63,6.89c-1.75,1.52-4.13,2.28-7.15,2.28
		c-2.42,0-5.09-0.29-8.03-0.85l-1.54-0.3l0.47-3.8c3.84,0.51,6.77,0.77,8.79,0.77c3.53,0,5.29-1.56,5.29-4.7
		c0-1.22-0.4-2.13-1.2-2.71c-0.8-0.58-2.59-1.22-5.38-1.92c-2.79-0.7-4.87-1.66-6.23-2.88c-1.37-1.22-2.05-3.16-2.05-5.81
		c0-2.65,0.86-4.65,2.58-6c1.72-1.35,4.1-2.03,7.15-2.03c2.19,0,4.78,0.26,7.77,0.77l1.49,0.26l-0.38,3.84
		C381.96,123.62,379.15,123.4,377.5,123.4z"/>
	<path d="M402.81,139.87h-5.98v9.09h-4.74v-29.24h10.71c6.63,0,9.95,3.27,9.95,9.82c0,3.36-0.83,5.92-2.5,7.68
		C408.6,138.99,406.11,139.87,402.81,139.87z M396.83,135.77h5.93c3.42,0,5.12-2.08,5.12-6.23c0-1.99-0.41-3.44-1.24-4.35
		c-0.83-0.91-2.12-1.37-3.88-1.37h-5.93V135.77z"/>
	<path d="M437.2,145.85c-1.75,2.39-4.83,3.59-9.24,3.59c-4.41,0-7.5-1.2-9.26-3.61c-1.77-2.4-2.65-6.18-2.65-11.33
		c0-5.15,0.89-8.98,2.67-11.48c1.78-2.5,4.86-3.76,9.24-3.76c4.38,0,7.46,1.25,9.22,3.74c1.76,2.49,2.65,6.33,2.65,11.5
		C439.82,139.67,438.95,143.46,437.2,145.85z M422.41,142.78c0.97,1.68,2.82,2.52,5.55,2.52c2.73,0,4.57-0.83,5.53-2.48
		c0.95-1.65,1.43-4.42,1.43-8.3s-0.49-6.71-1.47-8.47c-0.98-1.76-2.81-2.65-5.49-2.65c-2.68,0-4.51,0.88-5.51,2.65
		c-1,1.77-1.49,4.58-1.49,8.43C420.95,138.33,421.44,141.1,422.41,142.78z"/>
	<path d="M450.07,138.55v10.42h-4.74v-29.24h11.1c6.6,0,9.9,3.1,9.9,9.31c0,4.16-1.59,6.97-4.78,8.45l4.82,11.48h-5.21l-4.23-10.42
		H450.07z M461.47,129.07c0-3.5-1.68-5.25-5.04-5.25h-6.36v10.63h6.45c1.71,0,2.96-0.49,3.76-1.47
		C461.07,132,461.47,130.69,461.47,129.07z"/>
	<path d="M468.72,123.95v-4.23h21.34v4.23h-8.24v25.02h-4.78v-25.02H468.72z"/>
	<path d="M503.39,148.97v-29.24h18.14v4.14h-13.4v9.86h11.14v4.14h-11.14v11.1H503.39z"/>
	<path d="M545.67,145.85c-1.75,2.39-4.83,3.59-9.24,3.59c-4.41,0-7.5-1.2-9.26-3.61c-1.77-2.4-2.65-6.18-2.65-11.33
		c0-5.15,0.89-8.98,2.67-11.48c1.78-2.5,4.86-3.76,9.24-3.76c4.38,0,7.46,1.25,9.22,3.74c1.76,2.49,2.65,6.33,2.65,11.5
		C548.29,139.67,547.42,143.46,545.67,145.85z M530.88,142.78c0.97,1.68,2.82,2.52,5.55,2.52c2.73,0,4.57-0.83,5.53-2.48
		c0.95-1.65,1.43-4.42,1.43-8.3s-0.49-6.71-1.47-8.47c-0.98-1.76-2.81-2.65-5.49-2.65c-2.68,0-4.51,0.88-5.51,2.65
		c-1,1.77-1.49,4.58-1.49,8.43C529.43,138.33,529.91,141.1,530.88,142.78z"/>
	<path d="M558.54,138.55v10.42h-4.74v-29.24h11.1c6.6,0,9.9,3.1,9.9,9.31c0,4.16-1.59,6.97-4.78,8.45l4.82,11.48h-5.21l-4.23-10.42
		H558.54z M569.94,129.07c0-3.5-1.68-5.25-5.04-5.25h-6.36v10.63h6.45c1.71,0,2.96-0.49,3.76-1.47
		C569.54,132,569.94,130.69,569.94,129.07z"/>
	<path d="M276.24,191.1h-5.98v9.09h-4.74v-29.24h10.71c6.63,0,9.95,3.27,9.95,9.82c0,3.36-0.83,5.92-2.5,7.68
		C282.02,190.22,279.54,191.1,276.24,191.1z M270.26,187h5.93c3.42,0,5.12-2.08,5.12-6.23c0-1.99-0.41-3.44-1.24-4.35
		c-0.83-0.91-2.12-1.37-3.88-1.37h-5.93V187z"/>
	<path d="M287.21,200.19l7.21-29.24h9.43l7.26,29.24h-4.78l-1.58-6.28h-11.23l-1.58,6.28H287.21z M298.1,174.92l-3.63,14.81h9.35
		l-3.59-14.81H298.1z"/>
	<path d="M317.82,170.95l6.28,11.53l6.36-11.53h4.99l-8.67,14.86l8.67,14.39h-5.29l-6.28-11.01l-6.4,11.01h-4.99l8.71-14.13
		l-8.71-15.11H317.82z"/>
	<path d="M336.56,175.18v-4.23h21.34v4.23h-8.24v25.02h-4.78v-25.02H336.56z"/>
	<path d="M361.83,200.19v-29.24h18.44v4.14h-13.7v8.28h11.14v4.1h-11.14v8.54h13.7v4.18H361.83z"/>
	<path d="M390.17,189.78v10.42h-4.74v-29.24h11.1c6.6,0,9.9,3.1,9.9,9.31c0,4.16-1.59,6.97-4.78,8.45l4.82,11.48h-5.21l-4.23-10.42
		H390.17z M401.57,180.3c0-3.5-1.68-5.25-5.04-5.25h-6.36v10.63h6.45c1.71,0,2.96-0.49,3.76-1.47
		C401.17,183.22,401.57,181.92,401.57,180.3z"/>
	<path d="M421.64,200.19h-4.78v-12.04l-9.18-17.2h5.34l6.19,12.55l6.23-12.55h5.29l-9.09,17.2V200.19z"/>
	<path d="M429.62,200.19l7.21-29.24h9.43l7.26,29.24h-4.78l-1.58-6.28h-11.23l-1.58,6.28H429.62z M440.51,174.92l-3.63,14.81h9.35
		l-3.59-14.81H440.51z"/>
</g>
<g>
	<path class="st12" d="M160.57,78.46H88.06c0.34,66.09,22.63,128.69,72.51,162.08V78.46z"/>
	<path class="st13" d="M160.57,78.46H233c-0.34,66.09-22.63,128.69-72.43,162.08V78.46z"/>
	<g>
		<defs>
			<path id="SVGID_1_" d="M160.57,78.46H233c-0.34,63.62-24.51,111.52-72.43,143.63V78.46z M160.57,78.46H88.06
				c0.34,63.62,24.51,111.52,72.51,143.63V78.46z"/>
		</defs>
		<clipPath id="SVGID_2_">
			<use xlink:href="#SVGID_1_"  style="overflow:visible;"/>
		</clipPath>
		<rect x="88.06" y="221.06" class="st14" width="144.94" height="1.11"/>
		<rect x="88.06" y="220.47" class="st14" width="144.94" height="1.2"/>
		<rect x="88.06" y="219.95" class="st14" width="144.94" height="1.11"/>
		<rect x="88.06" y="219.36" class="st14" width="144.94" height="1.11"/>
		<rect x="88.06" y="218.76" class="st14" width="144.94" height="1.2"/>
		<rect x="88.06" y="218.25" class="st14" width="144.94" height="1.11"/>
		<rect x="88.06" y="217.65" class="st15" width="144.94" height="1.11"/>
		<rect x="88.06" y="217.14" class="st15" width="144.94" height="1.11"/>
		<rect x="88.06" y="216.54" class="st15" width="144.94" height="1.11"/>
		<rect x="88.06" y="215.94" class="st15" width="144.94" height="1.2"/>
		<rect x="88.06" y="215.43" class="st15" width="144.94" height="1.11"/>
		<rect x="88.06" y="214.83" class="st15" width="144.94" height="1.11"/>
		<rect x="88.06" y="214.23" class="st16" width="144.94" height="1.2"/>
		<rect x="88.06" y="213.72" class="st16" width="144.94" height="1.11"/>
		<rect x="88.06" y="213.12" class="st16" width="144.94" height="1.11"/>
		<rect x="88.06" y="212.53" class="st16" width="144.94" height="1.2"/>
		<rect x="88.06" y="212.01" class="st16" width="144.94" height="1.11"/>
		<rect x="88.06" y="211.42" class="st16" width="144.94" height="1.11"/>
		<rect x="88.06" y="210.9" class="st16" width="144.94" height="1.11"/>
		<rect x="88.06" y="210.31" class="st17" width="144.94" height="1.11"/>
		<rect x="88.06" y="209.71" class="st17" width="144.94" height="1.2"/>
		<rect x="88.06" y="209.2" class="st17" width="144.94" height="1.11"/>
		<rect x="88.06" y="208.6" class="st17" width="144.94" height="1.11"/>
		<rect x="88.06" y="208" class="st17" width="144.94" height="1.2"/>
		<rect x="88.06" y="207.49" class="st17" width="144.94" height="1.11"/>
		<rect x="88.06" y="206.89" class="st18" width="144.94" height="1.11"/>
		<rect x="88.06" y="206.38" class="st19" width="144.94" height="1.11"/>
		<rect x="88.06" y="205.78" class="st19" width="144.94" height="1.11"/>
		<rect x="88.06" y="205.18" class="st19" width="144.94" height="1.2"/>
		<rect x="88.06" y="204.67" class="st19" width="144.94" height="1.11"/>
		<rect x="88.06" y="204.07" class="st20" width="144.94" height="1.11"/>
		<rect x="88.06" y="203.47" class="st20" width="144.94" height="1.2"/>
		<rect x="88.06" y="202.96" class="st21" width="144.94" height="1.11"/>
		<rect x="88.06" y="202.36" class="st21" width="144.94" height="1.11"/>
		<rect x="88.06" y="201.85" class="st21" width="144.94" height="1.11"/>
		<rect x="88.06" y="201.25" class="st21" width="144.94" height="1.11"/>
		<rect x="88.06" y="200.66" class="st22" width="144.94" height="1.2"/>
		<rect x="88.06" y="200.14" class="st22" width="144.94" height="1.11"/>
		<rect x="88.06" y="199.55" class="st23" width="144.94" height="1.11"/>
		<rect x="88.06" y="198.95" class="st23" width="144.94" height="1.2"/>
		<rect x="88.06" y="198.44" class="st23" width="144.94" height="1.11"/>
		<rect x="88.06" y="197.84" class="st23" width="144.94" height="1.11"/>
		<rect x="88.06" y="197.33" class="st23" width="144.94" height="1.11"/>
		<rect x="88.06" y="196.73" class="st23" width="144.94" height="1.11"/>
		<rect x="88.06" y="196.13" class="st24" width="144.94" height="1.2"/>
		<rect x="88.06" y="195.62" class="st25" width="144.94" height="1.11"/>
		<rect x="88.06" y="195.02" class="st25" width="144.94" height="1.11"/>
		<rect x="88.06" y="194.42" class="st25" width="144.94" height="1.2"/>
		<rect x="88.06" y="193.91" class="st25" width="144.94" height="1.11"/>
		<rect x="88.06" y="193.31" class="st25" width="144.94" height="1.11"/>
		<rect x="88.06" y="192.71" class="st26" width="144.94" height="1.2"/>
		<rect x="88.06" y="192.2" class="st27" width="144.94" height="1.11"/>
		<rect x="88.06" y="191.6" class="st28" width="144.94" height="1.11"/>
		<rect x="88.06" y="191.09" class="st28" width="144.94" height="1.11"/>
		<rect x="88.06" y="190.49" class="st28" width="144.94" height="1.11"/>
		<rect x="88.06" y="189.9" class="st28" width="144.94" height="1.2"/>
		<rect x="88.06" y="189.38" class="st28" width="144.94" height="1.11"/>
		<rect x="88.06" y="188.79" class="st29" width="144.94" height="1.11"/>
		<rect x="88.06" y="188.19" class="st29" width="144.94" height="1.2"/>
		<rect x="88.06" y="187.68" class="st29" width="144.94" height="1.11"/>
		<rect x="88.06" y="187.08" class="st29" width="144.94" height="1.11"/>
		<rect x="88.06" y="186.57" class="st30" width="144.94" height="1.11"/>
		<rect x="88.06" y="185.97" class="st30" width="144.94" height="1.11"/>
		<rect x="88.06" y="185.37" class="st30" width="144.94" height="1.2"/>
		<rect x="88.06" y="184.86" class="st31" width="144.94" height="1.11"/>
		<rect x="88.06" y="184.26" class="st31" width="144.94" height="1.11"/>
		<rect x="88.06" y="183.66" class="st31" width="144.94" height="1.2"/>
		<rect x="88.06" y="183.15" class="st32" width="144.94" height="1.11"/>
		<rect x="88.06" y="182.55" class="st32" width="144.94" height="1.11"/>
		<rect x="88.06" y="182.04" class="st32" width="144.94" height="1.11"/>
		<rect x="88.06" y="181.44" class="st33" width="144.94" height="1.11"/>
		<rect x="88.06" y="180.84" class="st33" width="144.94" height="1.2"/>
		<rect x="88.06" y="180.33" class="st33" width="144.94" height="1.11"/>
		<rect x="88.06" y="179.73" class="st33" width="144.94" height="1.11"/>
		<rect x="88.06" y="179.14" class="st33" width="144.94" height="1.2"/>
		<rect x="88.06" y="178.62" class="st33" width="144.94" height="1.11"/>
		<rect x="88.06" y="178.03" class="st34" width="144.94" height="1.11"/>
		<rect x="88.06" y="177.43" class="st34" width="144.94" height="1.2"/>
		<rect x="88.06" y="176.92" class="st34" width="144.94" height="1.11"/>
		<rect x="88.06" y="176.32" class="st34" width="144.94" height="1.11"/>
		<rect x="88.06" y="175.81" class="st34" width="144.94" height="1.11"/>
		<rect x="88.06" y="175.21" class="st34" width="144.94" height="1.11"/>
		<rect x="88.06" y="174.61" class="st34" width="144.94" height="1.2"/>
		<rect x="88.06" y="174.1" class="st34" width="144.94" height="1.11"/>
		<rect x="88.06" y="173.5" class="st34" width="144.94" height="1.11"/>
		<rect x="88.06" y="172.9" class="st34" width="144.94" height="1.2"/>
		<rect x="88.06" y="172.39" class="st34" width="144.94" height="1.11"/>
		<rect x="88.06" y="171.79" class="st34" width="144.94" height="1.11"/>
		<rect x="88.06" y="171.28" class="st35" width="144.94" height="1.11"/>
		<rect x="88.06" y="170.68" class="st35" width="144.94" height="1.11"/>
		<rect x="88.06" y="170.08" class="st35" width="144.94" height="1.2"/>
		<rect x="88.06" y="169.57" class="st35" width="144.94" height="1.11"/>
		<rect x="88.06" y="168.97" class="st35" width="144.94" height="1.11"/>
		<rect x="88.06" y="168.38" class="st36" width="144.94" height="1.2"/>
		<rect x="88.06" y="167.86" class="st36" width="144.94" height="1.11"/>
		<rect x="88.06" y="167.27" class="st36" width="144.94" height="1.11"/>
		<rect x="88.06" y="166.75" class="st36" width="144.94" height="1.11"/>
		<rect x="88.06" y="166.16" class="st36" width="144.94" height="1.11"/>
		<rect x="88.06" y="165.56" class="st36" width="144.94" height="1.2"/>
		<rect x="88.06" y="165.05" class="st36" width="144.94" height="1.11"/>
		<rect x="88.06" y="164.45" class="st36" width="144.94" height="1.11"/>
		<rect x="88.06" y="163.85" class="st36" width="144.94" height="1.2"/>
		<rect x="88.06" y="163.34" class="st36" width="144.94" height="1.11"/>
		<rect x="88.06" y="162.74" class="st36" width="144.94" height="1.11"/>
		<rect x="88.06" y="162.23" class="st36" width="144.94" height="1.11"/>
		<rect x="88.06" y="161.63" class="st36" width="144.94" height="1.11"/>
		<rect x="88.06" y="161.03" class="st37" width="144.94" height="1.2"/>
		<rect x="88.06" y="160.52" class="st37" width="144.94" height="1.11"/>
		<rect x="88.06" y="159.92" class="st37" width="144.94" height="1.11"/>
		<rect x="88.06" y="159.33" class="st37" width="144.94" height="1.2"/>
		<rect x="88.06" y="158.81" class="st38" width="144.94" height="1.11"/>
		<rect x="88.06" y="158.22" class="st38" width="144.94" height="1.11"/>
		<rect x="88.06" y="157.62" class="st39" width="144.94" height="1.2"/>
		<rect x="88.06" y="157.11" class="st39" width="144.94" height="1.11"/>
		<rect x="88.06" y="156.51" class="st39" width="144.94" height="1.11"/>
		<rect x="88.06" y="155.99" class="st39" width="144.94" height="1.11"/>
		<rect x="88.06" y="155.4" class="st39" width="144.94" height="1.11"/>
		<rect x="88.06" y="154.8" class="st39" width="144.94" height="1.2"/>
		<rect x="88.06" y="154.29" class="st39" width="144.94" height="1.11"/>
		<rect x="88.06" y="153.69" class="st39" width="144.94" height="1.11"/>
		<rect x="88.06" y="153.09" class="st39" width="144.94" height="1.2"/>
		<rect x="88.06" y="152.58" class="st40" width="144.94" height="1.11"/>
		<rect x="88.06" y="151.98" class="st40" width="144.94" height="1.11"/>
		<rect x="88.06" y="151.47" class="st40" width="144.94" height="1.11"/>
		<rect x="88.06" y="150.87" class="st40" width="144.94" height="1.11"/>
		<rect x="88.06" y="150.27" class="st40" width="144.94" height="1.2"/>
		<rect x="88.06" y="149.76" class="st40" width="144.94" height="1.11"/>
		<rect x="88.06" y="149.16" class="st40" width="144.94" height="1.11"/>
		<rect x="88.06" y="148.57" class="st40" width="144.94" height="1.2"/>
		<rect x="88.06" y="148.05" class="st40" width="144.94" height="1.11"/>
		<rect x="88.06" y="147.46" class="st40" width="144.94" height="1.11"/>
		<rect x="88.06" y="146.94" class="st40" width="144.94" height="1.11"/>
		<rect x="88.06" y="146.35" class="st40" width="144.94" height="1.11"/>
		<rect x="88.06" y="145.75" class="st40" width="144.94" height="1.2"/>
		<rect x="88.06" y="145.24" class="st40" width="144.94" height="1.11"/>
		<rect x="88.06" y="144.64" class="st40" width="144.94" height="1.11"/>
		<rect x="88.06" y="144.04" class="st41" width="144.94" height="1.2"/>
		<rect x="88.06" y="143.53" class="st41" width="144.94" height="1.11"/>
		<rect x="88.06" y="142.93" class="st41" width="144.94" height="1.11"/>
		<rect x="88.06" y="142.33" class="st41" width="144.94" height="1.2"/>
		<rect x="88.06" y="141.82" class="st41" width="144.94" height="1.11"/>
		<rect x="88.06" y="141.22" class="st41" width="144.94" height="1.11"/>
		<rect x="88.06" y="140.71" class="st41" width="144.94" height="1.11"/>
		<rect x="88.06" y="140.11" class="st42" width="144.94" height="1.11"/>
		<rect x="88.06" y="139.51" class="st42" width="144.94" height="1.2"/>
		<rect x="88.06" y="139" class="st42" width="144.94" height="1.11"/>
		<rect x="88.06" y="138.4" class="st42" width="144.94" height="1.11"/>
		<rect x="88.06" y="137.81" class="st42" width="144.94" height="1.2"/>
		<rect x="88.06" y="137.29" class="st42" width="144.94" height="1.11"/>
		<rect x="88.06" y="136.7" class="st42" width="144.94" height="1.11"/>
		<rect x="88.06" y="136.18" class="st42" width="144.94" height="1.11"/>
		<rect x="88.06" y="135.59" class="st43" width="144.94" height="1.11"/>
		<rect x="88.06" y="134.99" class="st43" width="144.94" height="1.2"/>
		<rect x="88.06" y="134.48" class="st43" width="144.94" height="1.11"/>
		<rect x="88.06" y="133.88" class="st44" width="144.94" height="1.11"/>
		<rect x="88.06" y="133.28" class="st44" width="144.94" height="1.2"/>
		<rect x="88.06" y="132.77" class="st44" width="144.94" height="1.11"/>
		<rect x="88.06" y="132.17" class="st44" width="144.94" height="1.11"/>
		<rect x="88.06" y="131.66" class="st44" width="144.94" height="1.11"/>
		<rect x="88.06" y="131.06" class="st44" width="144.94" height="1.11"/>
		<rect x="88.06" y="130.46" class="st44" width="144.94" height="1.2"/>
		<rect x="88.06" y="129.95" class="st44" width="144.94" height="1.11"/>
		<rect x="88.06" y="129.35" class="st44" width="144.94" height="1.11"/>
		<rect x="88.06" y="128.75" class="st44" width="144.94" height="1.2"/>
		<rect x="88.06" y="128.24" class="st44" width="144.94" height="1.11"/>
		<rect x="88.06" y="127.64" class="st45" width="144.94" height="1.11"/>
		<rect x="88.06" y="127.13" class="st45" width="144.94" height="1.11"/>
		<rect x="88.06" y="126.53" class="st45" width="144.94" height="1.11"/>
		<rect x="88.06" y="125.94" class="st45" width="144.94" height="1.2"/>
		<rect x="88.06" y="125.42" class="st45" width="144.94" height="1.11"/>
		<rect x="88.06" y="124.83" class="st45" width="144.94" height="1.11"/>
		<rect x="88.06" y="124.23" class="st45" width="144.94" height="1.2"/>
		<rect x="88.06" y="123.72" class="st45" width="144.94" height="1.11"/>
		<rect x="88.06" y="123.12" class="st45" width="144.94" height="1.11"/>
		<rect x="88.06" y="122.52" class="st45" width="144.94" height="1.2"/>
		<rect x="88.06" y="122.01" class="st45" width="144.94" height="1.11"/>
		<rect x="88.06" y="121.41" class="st45" width="144.94" height="1.11"/>
		<rect x="88.06" y="120.9" class="st46" width="144.94" height="1.11"/>
		<rect x="88.06" y="120.3" class="st46" width="144.94" height="1.11"/>
		<rect x="88.06" y="119.7" class="st46" width="144.94" height="1.2"/>
		<rect x="88.06" y="119.19" class="st47" width="144.94" height="1.11"/>
		<rect x="88.06" y="118.59" class="st47" width="144.94" height="1.11"/>
		<rect x="88.06" y="117.99" class="st48" width="144.94" height="1.2"/>
		<rect x="88.06" y="117.48" class="st49" width="144.94" height="1.11"/>
		<rect x="88.06" y="116.88" class="st49" width="144.94" height="1.11"/>
		<rect x="88.06" y="116.37" class="st49" width="144.94" height="1.11"/>
		<rect x="88.06" y="115.77" class="st49" width="144.94" height="1.11"/>
		<rect x="88.06" y="115.18" class="st49" width="144.94" height="1.2"/>
		<rect x="88.06" y="114.66" class="st49" width="144.94" height="1.11"/>
		<rect x="88.06" y="114.07" class="st49" width="144.94" height="1.11"/>
		<rect x="88.06" y="113.47" class="st49" width="144.94" height="1.2"/>
		<rect x="88.06" y="112.96" class="st49" width="144.94" height="1.11"/>
		<rect x="88.06" y="112.36" class="st49" width="144.94" height="1.11"/>
		<rect x="88.06" y="111.85" class="st50" width="144.94" height="1.11"/>
		<rect x="88.06" y="111.25" class="st50" width="144.94" height="1.11"/>
		<rect x="88.06" y="110.65" class="st51" width="144.94" height="1.2"/>
		<rect x="88.06" y="110.14" class="st51" width="144.94" height="1.11"/>
		<rect x="88.06" y="109.54" class="st51" width="144.94" height="1.11"/>
		<rect x="88.06" y="108.94" class="st51" width="144.94" height="1.2"/>
		<rect x="88.06" y="108.43" class="st51" width="144.94" height="1.11"/>
		<rect x="88.06" y="107.83" class="st51" width="144.94" height="1.11"/>
		<rect x="88.06" y="107.24" class="st51" width="144.94" height="1.2"/>
		<rect x="88.06" y="106.72" class="st51" width="144.94" height="1.11"/>
		<rect x="88.06" y="106.13" class="st51" width="144.94" height="1.11"/>
		<rect x="88.06" y="105.61" class="st51" width="144.94" height="1.11"/>
		<rect x="88.06" y="105.02" class="st51" width="144.94" height="1.11"/>
		<rect x="88.06" y="104.42" class="st51" width="144.94" height="1.2"/>
		<rect x="88.06" y="103.9" class="st51" width="144.94" height="1.11"/>
		<rect x="88.06" y="103.31" class="st51" width="144.94" height="1.11"/>
		<rect x="88.06" y="102.71" class="st51" width="144.94" height="1.2"/>
		<rect x="88.06" y="102.2" class="st52" width="144.94" height="1.11"/>
		<rect x="88.06" y="101.6" class="st52" width="144.94" height="1.11"/>
		<rect x="88.06" y="101.09" class="st52" width="144.94" height="1.11"/>
		<rect x="88.06" y="100.49" class="st52" width="144.94" height="1.11"/>
		<rect x="88.06" y="99.89" class="st52" width="144.94" height="1.2"/>
		<rect x="88.06" y="99.38" class="st52" width="144.94" height="1.11"/>
		<rect x="88.06" y="98.78" class="st52" width="144.94" height="1.11"/>
		<rect x="88.06" y="98.18" class="st52" width="144.94" height="1.2"/>
		<rect x="88.06" y="97.67" class="st52" width="144.94" height="1.11"/>
		<rect x="88.06" y="97.07" class="st52" width="144.94" height="1.11"/>
		<rect x="88.06" y="96.56" class="st52" width="144.94" height="1.11"/>
		<rect x="88.06" y="95.96" class="st53" width="144.94" height="1.11"/>
		<rect x="88.06" y="95.37" class="st53" width="144.94" height="1.2"/>
		<rect x="88.06" y="94.85" class="st53" width="144.94" height="1.11"/>
		<rect x="88.06" y="94.26" class="st53" width="144.94" height="1.11"/>
		<rect x="88.06" y="93.66" class="st54" width="144.94" height="1.2"/>
		<rect x="88.06" y="93.15" class="st54" width="144.94" height="1.11"/>
		<rect x="88.06" y="92.55" class="st54" width="144.94" height="1.11"/>
		<rect x="88.06" y="92.04" class="st54" width="144.94" height="1.11"/>
		<rect x="88.06" y="91.44" class="st54" width="144.94" height="1.11"/>
		<rect x="88.06" y="90.84" class="st54" width="144.94" height="1.2"/>
		<rect x="88.06" y="90.33" class="st54" width="144.94" height="1.11"/>
		<rect x="88.06" y="89.73" class="st55" width="144.94" height="1.11"/>
		<rect x="88.06" y="89.13" class="st55" width="144.94" height="1.2"/>
		<rect x="88.06" y="88.62" class="st55" width="144.94" height="1.11"/>
		<rect x="88.06" y="88.02" class="st55" width="144.94" height="1.11"/>
		<rect x="88.06" y="87.42" class="st55" width="144.94" height="1.2"/>
		<rect x="88.06" y="86.91" class="st55" width="144.94" height="1.11"/>
		<rect x="88.06" y="86.31" class="st56" width="144.94" height="1.11"/>
		<rect x="88.06" y="85.8" class="st56" width="144.94" height="1.11"/>
		<rect x="88.06" y="85.2" class="st57" width="144.94" height="1.11"/>
		<rect x="88.06" y="84.61" class="st57" width="144.94" height="1.2"/>
		<rect x="88.06" y="84.09" class="st57" width="144.94" height="1.11"/>
		<rect x="88.06" y="83.5" class="st58" width="144.94" height="1.11"/>
		<rect x="88.06" y="82.9" class="st58" width="144.94" height="1.2"/>
		<rect x="88.06" y="82.39" class="st58" width="144.94" height="1.11"/>
		<rect x="88.06" y="81.79" class="st58" width="144.94" height="1.11"/>
		<rect x="88.06" y="81.28" class="st58" width="144.94" height="1.11"/>
		<rect x="88.06" y="80.68" class="st58" width="144.94" height="1.11"/>
		<rect x="88.06" y="80.08" class="st59" width="144.94" height="1.2"/>
		<rect x="88.06" y="79.57" class="st59" width="144.94" height="1.11"/>
		<rect x="88.06" y="78.97" class="st59" width="144.94" height="1.11"/>
		<rect x="88.06" y="78.37" class="st59" width="144.94" height="1.2"/>
		<rect x="88.06" y="77.86" class="st59" width="144.94" height="1.11"/>
		<rect x="88.06" y="77.26" class="st60" width="144.94" height="1.11"/>
	</g>
	<path class="st61" d="M164.59,78.46l14.01,58.15l47.75-5.38c-2.14,7.94-4.78,15.63-7.94,22.89l-39.72-7.17l-18.11,75.15V78.46
		H164.59z M160.57,222.09V78.46h-4.1l-14.01,58.15l-47.75-5.38c2.22,8.11,4.87,15.8,8.11,23.23l39.55-7.51L160.57,222.09z"/>
	<path class="st12" d="M160.57,160.78c10.33,0,18.79-8.37,18.79-18.79c0-10.42-8.46-18.87-18.79-18.87
		c-10.42,0-18.88,8.45-18.88,18.87C141.69,152.41,150.15,160.78,160.57,160.78L160.57,160.78z"/>
</g>
<g>
</g>
<g>
</g>
<g>
</g>
<g>
</g>
<g>
</g>
<g>
</g>
<g>
</g>
<g>
</g>
<g>
</g>
<g>
</g>
<g>
</g>
<g>
</g>
<g>
</g>
<g>
</g>
<g>
</g>
</svg>
