<?xml version="1.0" encoding="UTF-8"?>
<!DOCTYPE svg PUBLIC "-//W3C//DTD SVG 1.1//EN" "http://www.w3.org/Graphics/SVG/1.1/DTD/svg11.dtd">
<!-- Creator: CorelDRAW X5 -->
<svg xmlns="http://www.w3.org/2000/svg" xml:space="preserve" width="1.04166in" height="1.04166in" style="shape-rendering:geometricPrecision; text-rendering:geometricPrecision; image-rendering:optimizeQuality; fill-rule:evenodd; clip-rule:evenodd"
viewBox="0 0 1.04166 1.04166"
 xmlns:xlink="http://www.w3.org/1999/xlink">
 <defs>
  <style type="text/css">
   <![CDATA[
    .fil0 {fill:white}
   ]]>
  </style>
 </defs>
 <g id="Ebene_x0020_1">
  <metadata id="CorelCorpID_0Corel-Layer"/>
  <g id="_539585464">
   <path id="_539585704" class="fil0" d="M0.425402 0.440831c-0.0283228,0 -0.050685,0.0248425 -0.050685,0.0551535 0,0.030311 0.0228583,0.0551535 0.050685,0.0551535 0.0283228,0 0.0506811,-0.0248425 0.0506811,-0.0551535 0.0005,-0.030311 -0.0223583,-0.0551535 -0.0506811,-0.0551535zm0.181366 0c-0.0283228,0 -0.050685,0.0248425 -0.050685,0.0551535 0,0.030311 0.0228583,0.0551535 0.050685,0.0551535 0.0283228,0 0.0506811,-0.0248425 0.0506811,-0.0551535 0,-0.030311 -0.0223583,-0.0551535 -0.0506811,-0.0551535z"/>
   <path id="_539585920" class="fil0" d="M0.848256 0.023937l-0.665835 0c-0.0561496,0 -0.101862,0.0457126 -0.101862,0.102358l0 0.671799c0,0.0566457 0.0457126,0.102362 0.101862,0.102362l0.563472 0 -0.0263346 -0.0919252 0.0636024 0.0591299 0.060126 0.0556496 0.106831 0.0944134 0 -0.891429c0,-0.0566457 -0.0457126,-0.102358 -0.101862,-0.102358zm-0.191799 0.648941c0,0 -0.0178898,-0.0213661 -0.0327953,-0.040248 0.0650906,-0.0183858 0.089937,-0.0591299 0.089937,-0.0591299 -0.020374,0.0134173 -0.039752,0.0228583 -0.0571417,0.0293189 -0.0248465,0.0104331 -0.0486969,0.0173898 -0.0720512,0.0213661 -0.0477008,0.00894094 -0.0914291,0.00645669 -0.128693,-0.0005 -0.0283228,-0.00546457 -0.0526732,-0.0134134 -0.0730433,-0.0213661 -0.0114291,-0.00447244 -0.0238504,-0.00993701 -0.0362756,-0.0168937 -0.00148819,-0.000992126 -0.00298031,-0.00149213 -0.00447244,-0.00248425 -0.000992126,-0.000496063 -0.00148819,-0.000992126 -0.00198425,-0.00149213 -0.00894488,-0.0049685 -0.0139134,-0.00844488 -0.0139134,-0.00844488 0,0 0.0238504,0.039752 0.0869528,0.0586339 -0.0149055,0.0188819 -0.0332913,0.0412402 -0.0332913,0.0412402 -0.109811,-0.00347638 -0.151551,-0.0755276 -0.151551,-0.0755276 0,-0.16 0.0715512,-0.289689 0.0715512,-0.289689 0.0715551,-0.0536654 0.139626,-0.0521732 0.139626,-0.0521732l0.00497244 0.00596457c-0.0894409,0.0258386 -0.130685,0.0650906 -0.130685,0.0650906 0,0 0.0109331,-0.00596063 0.0293189,-0.0144094 0.0531654,-0.0233543 0.0954016,-0.029815 0.112791,-0.0313031 0.00298425,-0.000496063 0.0054685,-0.000992126 0.00844882,-0.000992126 0.030311,-0.00397638 0.0645945,-0.00497244 0.100374,-0.000996063 0.0472008,0.00546457 0.0978858,0.019378 0.149563,0.0477008 0,0 -0.0392559,-0.0372638 -0.123728,-0.0631024l0.00695669 -0.00795276c0,0 0.0680748,-0.00148819 0.13963,0.0521732 0,0 0.0715512,0.129693 0.0715512,0.289689 0,0 -0.0422362,0.0720512 -0.152051,0.0755276l3.93701e-006 0z"/>
  </g>
 </g>
</svg>
