<?xml version="1.0" encoding="UTF-8"?>
<!DOCTYPE svg PUBLIC "-//W3C//DTD SVG 1.1//EN" "http://www.w3.org/Graphics/SVG/1.1/DTD/svg11.dtd">
<!-- Creator: CorelDRAW X5 -->
<svg xmlns="http://www.w3.org/2000/svg" xml:space="preserve" width="1.04166in" height="1.04166in" style="shape-rendering:geometricPrecision; text-rendering:geometricPrecision; image-rendering:optimizeQuality; fill-rule:evenodd; clip-rule:evenodd"
viewBox="0 0 1.04166 1.04166"
 xmlns:xlink="http://www.w3.org/1999/xlink">
 <defs>
  <style type="text/css">
   <![CDATA[
    .fil0 {fill:white}
   ]]>
  </style>
 </defs>
 <g id="Ebene_x0020_1">
  <metadata id="CorelCorpID_0Corel-Layer"/>
  <path class="fil0" d="M0.330173 0.937858c0.387063,0 0.598858,-0.32098 0.598858,-0.598862 0,-0.0090315 0,-0.0180591 -0.000409449,-0.0270906 0.0410472,-0.0295512 0.0767559,-0.0669055 0.105079,-0.109181 -0.0377638,0.0168268 -0.0783976,0.0279094 -0.121087,0.0332441 0.0435079,-0.0258583 0.0767559,-0.067315 0.0927638,-0.116571 -0.0406339,0.0242205 -0.0857835,0.0414567 -0.133811,0.0508976 -0.0385827,-0.0410433 -0.0931732,-0.0664921 -0.153512,-0.0664921 -0.116157,0 -0.210563,0.0944055 -0.210563,0.210563 0,0.0164213 0.00205118,0.0324291 0.00533465,0.0480276 -0.174854,-0.00862205 -0.330008,-0.0927677 -0.433854,-0.220008 -0.018063,0.0311929 -0.0283228,0.067315 -0.0283228,0.105898 0,0.073063 0.0373504,0.137504 0.0935866,0.175268 -0.0344803,-0.00123228 -0.0669055,-0.0106732 -0.0952283,-0.0262717 0,0.000822835 0,0.00164567 0,0.00287402 0,0.101795 0.0726535,0.187173 0.168701,0.206465 -0.0176496,0.0049252 -0.036122,0.00738583 -0.0554134,0.00738583 -0.0135433,0 -0.0266811,-0.00122835 -0.0394055,-0.00369291 0.0266811,0.0837362 0.104669,0.144484 0.19661,0.146126 -0.0722402,0.0566417 -0.162953,0.0902992 -0.261461,0.0902992 -0.0168307,0 -0.0336575,-0.000818898 -0.0500787,-0.00287402 0.0927638,0.0591063 0.203591,0.0939961 0.322213,0.0939961z"/>
 </g>
</svg>
