<?xml version="1.0" encoding="UTF-8"?>
<!DOCTYPE svg PUBLIC "-//W3C//DTD SVG 1.1//EN" "http://www.w3.org/Graphics/SVG/1.1/DTD/svg11.dtd">
<!-- Creator: CorelDRAW X5 -->
<svg xmlns="http://www.w3.org/2000/svg" xml:space="preserve" width="1.04166in" height="1.04166in" style="shape-rendering:geometricPrecision; text-rendering:geometricPrecision; image-rendering:optimizeQuality; fill-rule:evenodd; clip-rule:evenodd"
viewBox="0 0 1.04166 1.04166"
 xmlns:xlink="http://www.w3.org/1999/xlink">
 <defs>
  <style type="text/css">
   <![CDATA[
    .fil0 {fill:white}
   ]]>
  </style>
 </defs>
 <g id="Ebene_x0020_1">
  <metadata id="CorelCorpID_0Corel-Layer"/>
  <path class="fil0" d="M0.416524 0.671035l0 -0.300409c0.00385039,0.000897638 0.0281654,0.0151929 0.0333071,0.0181535l0.131236 0.0746024c0.00956299,0.00534646 0.0941299,0.0547598 0.0997047,0.0560591l0 0.00277953c-0.00426772,0.000996063 -0.0123819,0.00618504 -0.0164213,0.00861417 -0.029685,0.0178465 -0.0676535,0.0377559 -0.0984213,0.0559567 -0.0418701,0.0247677 -0.090122,0.0502559 -0.132122,0.0750984 -0.00448819,0.00265748 -0.0127323,0.00808661 -0.0172835,0.00914567zm0.614724 -0.155154l0 0.046437 -0.00277559 0.0642165c-0.000322835,0.00604331 -0.00109843,0.00508661 -0.00140157,0.0111181 -0.00168504,0.0338268 -0.00468898,0.0664449 -0.00990945,0.0971772 -0.00543701,0.0320118 -0.0126024,0.0567244 -0.0289961,0.0780984l-0.0129331 0.0148819c-0.0323543,0.0273465 -0.0502992,0.0320551 -0.0949528,0.0385591l-0.0479252 0.0049252c-0.0186102,0.000885827 -0.0845669,0.00567323 -0.101504,0.00558268 -0.0318976,-0.000161417 -0.0712362,0.00277559 -0.104319,0.00277559 -0.0363031,0 -0.0687598,0.00138976 -0.105701,0.00138976 -0.0373976,0 -0.0702598,-0.00138976 -0.107087,-0.00138976 -0.0330472,0 -0.0724409,-0.00294882 -0.104327,-0.00276378 -0.0106378,5.90551e-005 -0.0154449,-0.00151181 -0.0264016,-0.00141339 -0.0106181,9.05512e-005 -0.015748,-0.00145276 -0.0249961,-0.00142913 -0.0357598,8.26772e-005 -0.113661,-0.00747638 -0.142776,-0.0171693 -0.014937,-0.00497244 -0.0241063,-0.0102598 -0.035878,-0.0183622 -0.0339252,-0.0233465 -0.0481024,-0.0632638 -0.0550551,-0.104882 -0.0107087,-0.0640984 -0.0138937,-0.159799 -0.0138937,-0.225319l0 -0.000437008 0 -0.000433071 0 -0.0297402c0.000255906,-0.00761811 0.00143307,-0.0127598 0.0013937,-0.0222362l0.00138189 -0.0403425c0.000322835,-0.00604331 0.00109843,-0.00508661 0.00139764,-0.0111181 0.00270079,-0.0540512 0.00750394,-0.134083 0.0389134,-0.175268 0.0282047,-0.0369882 0.0623976,-0.0468268 0.107882,-0.0534488 0.021622,-0.00314567 0.128118,-0.0106181 0.149429,-0.0105079 0.0318976,0.000165354 0.0712362,-0.00277165 0.104319,-0.00277165 0.0363031,0 0.0687598,-0.0013937 0.105697,-0.0013937 0.0374016,0 0.0702638,0.0013937 0.107091,0.0013937 0.0330472,0 0.0724409,0.00294488 0.104327,0.00275984 0.0119055,-6.69291e-005 0.0903189,0.00481496 0.101429,0.00566535 0.051189,0.00391339 0.100201,0.00725197 0.136051,0.039185 0.0030748,0.00274016 0.00403937,0.00262598 0.00696457,0.00555118 0.0446378,0.0446378 0.0454921,0.128161 0.0504567,0.19015 0.00302756,0.0378071 0.00388189,0.0737441 0.00409843,0.110559z"/>
 </g>
</svg>
