<svg xmlns="http://www.w3.org/2000/svg" xmlns:xlink="http://www.w3.org/1999/xlink" viewBox="0 0 306.32 326.22"><defs><style>.cls-1{fill:none;clip-rule:evenodd;}.cls-2{fill:#102f36;}.cls-2,.cls-3,.cls-77{fill-rule:evenodd;}.cls-3{fill:#1f5361;}.cls-4{clip-path:url(#clip-path);}.cls-5{fill:#00a8c6;}.cls-6{fill:#00a9c6;}.cls-7{fill:#02aac6;}.cls-8{fill:#03aac6;}.cls-9{fill:#05aac6;}.cls-10{fill:#06abc6;}.cls-11{fill:#07abc6;}.cls-12{fill:#09abc6;}.cls-13{fill:#07acc6;}.cls-14{fill:#08acc6;}.cls-15{fill:#0aacc6;}.cls-16{fill:#0bacc7;}.cls-17{fill:#0cacc7;}.cls-18{fill:#0aadc7;}.cls-19{fill:#0badc7;}.cls-20{fill:#0dadc7;}.cls-21{fill:#0aaec7;}.cls-22{fill:#0caec7;}.cls-23{fill:#0eaec7;}.cls-24{fill:#0dafc7;}.cls-25{fill:#0eafc7;}.cls-26{fill:#10afc7;}.cls-27{fill:#12afc7;}.cls-28{fill:#11b0c7;}.cls-29{fill:#12b0c7;}.cls-30{fill:#14b0c7;}.cls-31{fill:#15b1c7;}.cls-32{fill:#16b1c7;}.cls-33{fill:#17b2c7;}.cls-34{fill:#18b2c7;}.cls-35{fill:#19b2c7;}.cls-36{fill:#18b3c8;}.cls-37{fill:#19b3c8;}.cls-38{fill:#1ab3c8;}.cls-39{fill:#1cb4c8;}.cls-40{fill:#1db4c8;}.cls-41{fill:#1eb4c8;}.cls-42{fill:#20b4c7;}.cls-43{fill:#21b4c7;}.cls-44{fill:#22b4c7;}.cls-45{fill:#23b4c7;}.cls-46{fill:#24b5c7;}.cls-47{fill:#25b5c7;}.cls-48{fill:#24b5c9;}.cls-49{fill:#26b6c8;}.cls-50{fill:#27b6c8;}.cls-51{fill:#29b7c8;}.cls-52{fill:#2ab7c8;}.cls-53{fill:#2bb7c8;}.cls-54{fill:#2cb7c8;}.cls-55{fill:#2eb9c8;}.cls-56{fill:#2fb9c8;}.cls-57{fill:#2fb9c9;}.cls-58{fill:#31bac9;}.cls-59{fill:#32bac9;}.cls-60{fill:#33bac9;}.cls-61{fill:#34bbc9;}.cls-62{fill:#35bbc9;}.cls-63{fill:#35bbca;}.cls-64{fill:#36bbca;}.cls-65{fill:#37bcca;}.cls-66{fill:#38bcca;}.cls-67{fill:#39bdca;}.cls-68{fill:#3abdca;}.cls-69{fill:#3bbdca;}.cls-70{fill:#3bbeca;}.cls-71{fill:#3cbeca;}.cls-72{fill:#3dbeca;}.cls-73{fill:#3ebeca;}.cls-74{fill:#3fbfca;}.cls-75{fill:#40bfca;}.cls-76{fill:#41c1cb;}.cls-77,.cls-78{fill:#fff;}</style><clipPath id="clip-path" transform="translate(0 1.66)"><path class="cls-1" d="M153.07,0H253.6q-.72,132.45-100.53,199.36Zm0,0H52.42q.72,132.45,100.65,199.36Z"/></clipPath></defs><title>Asset 1</title><g id="Layer_2" data-name="Layer 2"><g id="Layer_1-2" data-name="Layer 1"><path class="cls-2" d="M153.07,0H52.42c.48,91.74,31.42,178.62,100.65,225Z" transform="translate(0 1.66)"/><path class="cls-3" d="M153.07,0H253.6c-.48,91.74-31.42,178.62-100.53,225Z" transform="translate(0 1.66)"/><g class="cls-4"><rect class="cls-5" x="52.42" y="199.59" width="201.18" height="1.54"/><rect class="cls-5" x="52.42" y="198.76" width="201.18" height="1.66"/><rect class="cls-5" x="52.42" y="198.05" width="201.18" height="1.54"/><rect class="cls-5" x="52.42" y="197.22" width="201.18" height="1.54"/><rect class="cls-5" x="52.42" y="196.39" width="201.18" height="1.66"/><rect class="cls-5" x="52.42" y="195.68" width="201.18" height="1.54"/><rect class="cls-6" x="52.42" y="194.85" width="201.18" height="1.54"/><rect class="cls-6" x="52.42" y="194.14" width="201.18" height="1.54"/><rect class="cls-6" x="52.42" y="193.31" width="201.18" height="1.54"/><rect class="cls-6" x="52.42" y="192.48" width="201.18" height="1.66"/><rect class="cls-6" x="52.42" y="191.77" width="201.18" height="1.54"/><rect class="cls-6" x="52.42" y="190.94" width="201.18" height="1.54"/><rect class="cls-7" x="52.42" y="190.11" width="201.18" height="1.66"/><rect class="cls-7" x="52.42" y="189.4" width="201.18" height="1.54"/><rect class="cls-8" x="52.42" y="188.57" width="201.18" height="1.54"/><rect class="cls-8" x="52.42" y="187.74" width="201.18" height="1.66"/><rect class="cls-9" x="52.42" y="187.03" width="201.18" height="1.54"/><rect class="cls-9" x="52.42" y="186.2" width="201.18" height="1.54"/><rect class="cls-9" x="52.42" y="185.49" width="201.18" height="1.54"/><rect class="cls-10" x="52.42" y="184.66" width="201.18" height="1.54"/><rect class="cls-10" x="52.42" y="183.83" width="201.18" height="1.66"/><rect class="cls-11" x="52.42" y="183.12" width="201.18" height="1.54"/><rect class="cls-11" x="52.42" y="182.29" width="201.18" height="1.54"/><rect class="cls-11" x="52.42" y="181.46" width="201.18" height="1.66"/><rect class="cls-12" x="52.42" y="180.75" width="201.18" height="1.54"/><rect class="cls-13" x="52.42" y="179.92" width="201.18" height="1.54"/><rect class="cls-14" x="52.42" y="179.21" width="201.18" height="1.54"/><rect class="cls-14" x="52.42" y="178.38" width="201.18" height="1.54"/><rect class="cls-15" x="52.42" y="177.55" width="201.18" height="1.66"/><rect class="cls-15" x="52.42" y="176.84" width="201.18" height="1.54"/><rect class="cls-16" x="52.42" y="176.01" width="201.18" height="1.54"/><rect class="cls-17" x="52.42" y="175.18" width="201.18" height="1.66"/><rect class="cls-18" x="52.42" y="174.47" width="201.18" height="1.54"/><rect class="cls-19" x="52.42" y="173.64" width="201.18" height="1.54"/><rect class="cls-19" x="52.42" y="172.93" width="201.18" height="1.54"/><rect class="cls-19" x="52.42" y="172.1" width="201.18" height="1.54"/><rect class="cls-20" x="52.42" y="171.27" width="201.18" height="1.66"/><rect class="cls-20" x="52.42" y="170.56" width="201.18" height="1.54"/><rect class="cls-21" x="52.42" y="169.73" width="201.18" height="1.54"/><rect class="cls-21" x="52.42" y="168.9" width="201.18" height="1.66"/><rect class="cls-22" x="52.42" y="168.19" width="201.18" height="1.54"/><rect class="cls-22" x="52.42" y="167.36" width="201.18" height="1.54"/><rect class="cls-22" x="52.42" y="166.64" width="201.18" height="1.54"/><rect class="cls-23" x="52.42" y="165.81" width="201.18" height="1.54"/><rect class="cls-24" x="52.42" y="164.99" width="201.18" height="1.66"/><rect class="cls-25" x="52.42" y="164.27" width="201.18" height="1.54"/><rect class="cls-25" x="52.42" y="163.44" width="201.18" height="1.54"/><rect class="cls-25" x="52.42" y="162.61" width="201.18" height="1.66"/><rect class="cls-26" x="52.42" y="161.9" width="201.18" height="1.54"/><rect class="cls-26" x="52.42" y="161.07" width="201.18" height="1.54"/><rect class="cls-27" x="52.42" y="160.24" width="201.18" height="1.66"/><rect class="cls-28" x="52.42" y="159.53" width="201.18" height="1.54"/><rect class="cls-29" x="52.42" y="158.7" width="201.18" height="1.54"/><rect class="cls-29" x="52.42" y="157.99" width="201.18" height="1.54"/><rect class="cls-29" x="52.42" y="157.16" width="201.18" height="1.54"/><rect class="cls-30" x="52.42" y="156.33" width="201.18" height="1.66"/><rect class="cls-30" x="52.42" y="155.62" width="201.18" height="1.54"/><rect class="cls-31" x="52.42" y="154.79" width="201.18" height="1.54"/><rect class="cls-31" x="52.42" y="153.96" width="201.18" height="1.66"/><rect class="cls-31" x="52.42" y="153.25" width="201.18" height="1.54"/><rect class="cls-31" x="52.42" y="152.42" width="201.18" height="1.54"/><rect class="cls-32" x="52.42" y="151.71" width="201.18" height="1.54"/><rect class="cls-32" x="52.42" y="150.88" width="201.18" height="1.54"/><rect class="cls-32" x="52.42" y="150.05" width="201.18" height="1.66"/><rect class="cls-33" x="52.42" y="149.34" width="201.18" height="1.54"/><rect class="cls-33" x="52.42" y="148.51" width="201.18" height="1.54"/><rect class="cls-33" x="52.42" y="147.68" width="201.18" height="1.66"/><rect class="cls-34" x="52.42" y="146.97" width="201.18" height="1.54"/><rect class="cls-34" x="52.42" y="146.14" width="201.18" height="1.54"/><rect class="cls-35" x="52.42" y="145.43" width="201.18" height="1.54"/><rect class="cls-36" x="52.42" y="144.6" width="201.18" height="1.54"/><rect class="cls-36" x="52.42" y="143.77" width="201.18" height="1.66"/><rect class="cls-37" x="52.42" y="143.06" width="201.18" height="1.54"/><rect class="cls-37" x="52.42" y="142.23" width="201.18" height="1.54"/><rect class="cls-38" x="52.42" y="141.4" width="201.18" height="1.66"/><rect class="cls-38" x="52.42" y="140.69" width="201.18" height="1.54"/><rect class="cls-39" x="52.42" y="139.86" width="201.18" height="1.54"/><rect class="cls-39" x="52.42" y="139.03" width="201.18" height="1.66"/><rect class="cls-39" x="52.42" y="138.32" width="201.18" height="1.54"/><rect class="cls-39" x="52.42" y="137.49" width="201.18" height="1.54"/><rect class="cls-39" x="52.42" y="136.78" width="201.18" height="1.54"/><rect class="cls-39" x="52.42" y="135.95" width="201.18" height="1.54"/><rect class="cls-40" x="52.42" y="135.12" width="201.18" height="1.66"/><rect class="cls-40" x="52.42" y="134.41" width="201.18" height="1.54"/><rect class="cls-40" x="52.42" y="133.58" width="201.18" height="1.54"/><rect class="cls-40" x="52.42" y="132.75" width="201.18" height="1.66"/><rect class="cls-40" x="52.42" y="132.04" width="201.18" height="1.54"/><rect class="cls-40" x="52.42" y="131.21" width="201.18" height="1.54"/><rect class="cls-41" x="52.42" y="130.49" width="201.18" height="1.54"/><rect class="cls-41" x="52.42" y="129.67" width="201.18" height="1.54"/><rect class="cls-41" x="52.42" y="128.84" width="201.18" height="1.66"/><rect class="cls-42" x="52.42" y="128.12" width="201.18" height="1.54"/><rect class="cls-42" x="52.42" y="127.29" width="201.18" height="1.54"/><rect class="cls-43" x="52.42" y="126.46" width="201.18" height="1.66"/><rect class="cls-43" x="52.42" y="125.75" width="201.18" height="1.54"/><rect class="cls-43" x="52.42" y="124.92" width="201.18" height="1.54"/><rect class="cls-43" x="52.42" y="124.21" width="201.18" height="1.54"/><rect class="cls-43" x="52.42" y="123.38" width="201.18" height="1.54"/><rect class="cls-43" x="52.42" y="122.55" width="201.18" height="1.66"/><rect class="cls-44" x="52.42" y="121.84" width="201.18" height="1.54"/><rect class="cls-44" x="52.42" y="121.01" width="201.18" height="1.54"/><rect class="cls-44" x="52.42" y="120.18" width="201.18" height="1.66"/><rect class="cls-44" x="52.42" y="119.47" width="201.18" height="1.54"/><rect class="cls-44" x="52.42" y="118.64" width="201.18" height="1.54"/><rect class="cls-45" x="52.42" y="117.93" width="201.18" height="1.54"/><rect class="cls-45" x="52.42" y="117.1" width="201.18" height="1.54"/><rect class="cls-46" x="52.42" y="116.27" width="201.18" height="1.66"/><rect class="cls-46" x="52.42" y="115.56" width="201.18" height="1.54"/><rect class="cls-46" x="52.42" y="114.73" width="201.18" height="1.54"/><rect class="cls-46" x="52.42" y="113.9" width="201.18" height="1.66"/><rect class="cls-47" x="52.42" y="113.19" width="201.18" height="1.54"/><rect class="cls-47" x="52.42" y="112.36" width="201.18" height="1.54"/><rect class="cls-48" x="52.42" y="111.53" width="201.18" height="1.66"/><rect class="cls-48" x="52.42" y="110.82" width="201.18" height="1.54"/><rect class="cls-48" x="52.42" y="109.99" width="201.18" height="1.54"/><rect class="cls-48" x="52.42" y="109.28" width="201.18" height="1.54"/><rect class="cls-48" x="52.42" y="108.45" width="201.18" height="1.54"/><rect class="cls-48" x="52.42" y="107.62" width="201.18" height="1.66"/><rect class="cls-48" x="52.42" y="106.91" width="201.18" height="1.54"/><rect class="cls-48" x="52.42" y="106.08" width="201.18" height="1.54"/><rect class="cls-48" x="52.42" y="105.25" width="201.18" height="1.66"/><rect class="cls-49" x="52.42" y="104.54" width="201.18" height="1.54"/><rect class="cls-49" x="52.42" y="103.71" width="201.18" height="1.54"/><rect class="cls-49" x="52.42" y="103" width="201.18" height="1.54"/><rect class="cls-49" x="52.42" y="102.17" width="201.18" height="1.54"/><rect class="cls-49" x="52.42" y="101.34" width="201.18" height="1.66"/><rect class="cls-49" x="52.42" y="100.63" width="201.18" height="1.54"/><rect class="cls-50" x="52.42" y="99.8" width="201.18" height="1.54"/><rect class="cls-50" x="52.42" y="98.97" width="201.18" height="1.66"/><rect class="cls-50" x="52.42" y="98.26" width="201.18" height="1.54"/><rect class="cls-50" x="52.42" y="97.43" width="201.18" height="1.54"/><rect class="cls-50" x="52.42" y="96.72" width="201.18" height="1.54"/><rect class="cls-50" x="52.42" y="95.89" width="201.18" height="1.54"/><rect class="cls-50" x="52.42" y="95.06" width="201.18" height="1.66"/><rect class="cls-50" x="52.42" y="94.35" width="201.18" height="1.54"/><rect class="cls-50" x="52.42" y="93.52" width="201.18" height="1.54"/><rect class="cls-51" x="52.42" y="92.69" width="201.18" height="1.66"/><rect class="cls-51" x="52.42" y="91.97" width="201.18" height="1.54"/><rect class="cls-52" x="52.42" y="91.14" width="201.18" height="1.54"/><rect class="cls-52" x="52.42" y="90.32" width="201.18" height="1.66"/><rect class="cls-52" x="52.42" y="89.6" width="201.18" height="1.54"/><rect class="cls-52" x="52.42" y="88.77" width="201.18" height="1.54"/><rect class="cls-52" x="52.42" y="88.06" width="201.18" height="1.54"/><rect class="cls-53" x="52.42" y="87.23" width="201.18" height="1.54"/><rect class="cls-53" x="52.42" y="86.4" width="201.18" height="1.66"/><rect class="cls-53" x="52.42" y="85.69" width="201.18" height="1.54"/><rect class="cls-53" x="52.42" y="84.86" width="201.18" height="1.54"/><rect class="cls-53" x="52.42" y="84.03" width="201.18" height="1.66"/><rect class="cls-53" x="52.42" y="83.32" width="201.18" height="1.54"/><rect class="cls-54" x="52.42" y="82.49" width="201.18" height="1.54"/><rect class="cls-54" x="52.42" y="81.78" width="201.18" height="1.54"/><rect class="cls-55" x="52.42" y="80.95" width="201.18" height="1.54"/><rect class="cls-55" x="52.42" y="80.12" width="201.18" height="1.66"/><rect class="cls-55" x="52.42" y="79.41" width="201.18" height="1.54"/><rect class="cls-56" x="52.42" y="78.58" width="201.18" height="1.54"/><rect class="cls-56" x="52.42" y="77.75" width="201.18" height="1.66"/><rect class="cls-56" x="52.42" y="77.04" width="201.18" height="1.54"/><rect class="cls-56" x="52.42" y="76.21" width="201.18" height="1.54"/><rect class="cls-56" x="52.42" y="75.5" width="201.18" height="1.54"/><rect class="cls-56" x="52.42" y="74.67" width="201.18" height="1.54"/><rect class="cls-57" x="52.42" y="73.84" width="201.18" height="1.66"/><rect class="cls-57" x="52.42" y="73.13" width="201.18" height="1.54"/><rect class="cls-57" x="52.42" y="72.3" width="201.18" height="1.54"/><rect class="cls-57" x="52.42" y="71.47" width="201.18" height="1.66"/><rect class="cls-57" x="52.42" y="70.76" width="201.18" height="1.54"/><rect class="cls-58" x="52.42" y="69.93" width="201.18" height="1.54"/><rect class="cls-58" x="52.42" y="69.22" width="201.18" height="1.54"/><rect class="cls-58" x="52.42" y="68.39" width="201.18" height="1.54"/><rect class="cls-58" x="52.42" y="67.56" width="201.18" height="1.66"/><rect class="cls-58" x="52.42" y="66.85" width="201.18" height="1.54"/><rect class="cls-58" x="52.42" y="66.02" width="201.18" height="1.54"/><rect class="cls-59" x="52.42" y="65.19" width="201.18" height="1.66"/><rect class="cls-59" x="52.42" y="64.48" width="201.18" height="1.54"/><rect class="cls-59" x="52.42" y="63.65" width="201.18" height="1.54"/><rect class="cls-59" x="52.42" y="62.82" width="201.18" height="1.66"/><rect class="cls-59" x="52.42" y="62.11" width="201.18" height="1.54"/><rect class="cls-59" x="52.42" y="61.28" width="201.18" height="1.54"/><rect class="cls-60" x="52.42" y="60.57" width="201.18" height="1.54"/><rect class="cls-60" x="52.42" y="59.74" width="201.18" height="1.54"/><rect class="cls-60" x="52.42" y="58.91" width="201.18" height="1.66"/><rect class="cls-61" x="52.42" y="58.2" width="201.18" height="1.54"/><rect class="cls-61" x="52.42" y="57.37" width="201.18" height="1.54"/><rect class="cls-62" x="52.42" y="56.54" width="201.18" height="1.66"/><rect class="cls-63" x="52.42" y="55.82" width="201.18" height="1.54"/><rect class="cls-63" x="52.42" y="55" width="201.18" height="1.54"/><rect class="cls-63" x="52.42" y="54.28" width="201.18" height="1.54"/><rect class="cls-63" x="52.42" y="53.45" width="201.18" height="1.54"/><rect class="cls-63" x="52.42" y="52.62" width="201.18" height="1.66"/><rect class="cls-64" x="52.42" y="51.91" width="201.18" height="1.54"/><rect class="cls-64" x="52.42" y="51.08" width="201.18" height="1.54"/><rect class="cls-64" x="52.42" y="50.25" width="201.18" height="1.66"/><rect class="cls-64" x="52.42" y="49.54" width="201.18" height="1.54"/><rect class="cls-64" x="52.42" y="48.71" width="201.18" height="1.54"/><rect class="cls-64" x="52.42" y="48" width="201.18" height="1.54"/><rect class="cls-64" x="52.42" y="47.17" width="201.18" height="1.54"/><rect class="cls-65" x="52.42" y="46.34" width="201.18" height="1.66"/><rect class="cls-65" x="52.42" y="45.63" width="201.18" height="1.54"/><rect class="cls-65" x="52.42" y="44.8" width="201.18" height="1.54"/><rect class="cls-65" x="52.42" y="43.97" width="201.18" height="1.66"/><rect class="cls-65" x="52.42" y="43.26" width="201.18" height="1.54"/><rect class="cls-65" x="52.42" y="42.43" width="201.18" height="1.54"/><rect class="cls-65" x="52.42" y="41.6" width="201.18" height="1.66"/><rect class="cls-65" x="52.42" y="40.89" width="201.18" height="1.54"/><rect class="cls-65" x="52.42" y="40.06" width="201.18" height="1.54"/><rect class="cls-66" x="52.42" y="39.35" width="201.18" height="1.54"/><rect class="cls-66" x="52.42" y="38.52" width="201.18" height="1.54"/><rect class="cls-66" x="52.42" y="37.69" width="201.18" height="1.66"/><rect class="cls-66" x="52.42" y="36.98" width="201.18" height="1.54"/><rect class="cls-66" x="52.42" y="36.15" width="201.18" height="1.54"/><rect class="cls-66" x="52.42" y="35.32" width="201.18" height="1.66"/><rect class="cls-67" x="52.42" y="34.61" width="201.18" height="1.54"/><rect class="cls-67" x="52.42" y="33.78" width="201.18" height="1.54"/><rect class="cls-67" x="52.42" y="33.07" width="201.18" height="1.54"/><rect class="cls-67" x="52.42" y="32.24" width="201.18" height="1.54"/><rect class="cls-67" x="52.42" y="31.41" width="201.18" height="1.66"/><rect class="cls-67" x="52.42" y="30.7" width="201.18" height="1.54"/><rect class="cls-68" x="52.42" y="29.87" width="201.18" height="1.54"/><rect class="cls-68" x="52.42" y="29.04" width="201.18" height="1.66"/><rect class="cls-68" x="52.42" y="28.33" width="201.18" height="1.54"/><rect class="cls-68" x="52.42" y="27.5" width="201.18" height="1.54"/><rect class="cls-68" x="52.42" y="26.79" width="201.18" height="1.54"/><rect class="cls-69" x="52.42" y="25.96" width="201.18" height="1.54"/><rect class="cls-69" x="52.42" y="25.13" width="201.18" height="1.66"/><rect class="cls-69" x="52.42" y="24.42" width="201.18" height="1.54"/><rect class="cls-69" x="52.42" y="23.59" width="201.18" height="1.54"/><rect class="cls-70" x="52.42" y="22.76" width="201.18" height="1.66"/><rect class="cls-70" x="52.42" y="22.05" width="201.18" height="1.54"/><rect class="cls-71" x="52.42" y="21.22" width="201.18" height="1.54"/><rect class="cls-71" x="52.42" y="20.5" width="201.18" height="1.54"/><rect class="cls-71" x="52.42" y="19.67" width="201.18" height="1.54"/><rect class="cls-71" x="52.42" y="18.85" width="201.18" height="1.66"/><rect class="cls-71" x="52.42" y="18.13" width="201.18" height="1.54"/><rect class="cls-72" x="52.42" y="17.3" width="201.18" height="1.54"/><rect class="cls-72" x="52.42" y="16.47" width="201.18" height="1.66"/><rect class="cls-72" x="52.42" y="15.76" width="201.18" height="1.54"/><rect class="cls-72" x="52.42" y="14.93" width="201.18" height="1.54"/><rect class="cls-72" x="52.42" y="14.1" width="201.18" height="1.66"/><rect class="cls-72" x="52.42" y="13.39" width="201.18" height="1.54"/><rect class="cls-73" x="52.42" y="12.56" width="201.18" height="1.54"/><rect class="cls-73" x="52.42" y="11.85" width="201.18" height="1.54"/><rect class="cls-74" x="52.42" y="11.02" width="201.18" height="1.54"/><rect class="cls-74" x="52.42" y="10.19" width="201.18" height="1.66"/><rect class="cls-74" x="52.42" y="9.48" width="201.18" height="1.54"/><rect class="cls-74" x="52.42" y="8.65" width="201.18" height="1.54"/><rect class="cls-74" x="52.42" y="7.82" width="201.18" height="1.66"/><rect class="cls-74" x="52.42" y="7.11" width="201.18" height="1.54"/><rect class="cls-74" x="52.42" y="6.28" width="201.18" height="1.54"/><rect class="cls-74" x="52.42" y="5.57" width="201.18" height="1.54"/><rect class="cls-74" x="52.42" y="4.74" width="201.18" height="1.54"/><rect class="cls-75" x="52.42" y="3.91" width="201.18" height="1.66"/><rect class="cls-75" x="52.42" y="3.2" width="201.18" height="1.54"/><rect class="cls-75" x="52.42" y="2.37" width="201.18" height="1.54"/><rect class="cls-75" x="52.42" y="1.54" width="201.18" height="1.66"/><rect class="cls-75" x="52.42" y="0.83" width="201.18" height="1.54"/><rect class="cls-76" x="52.42" width="201.18" height="1.54"/></g><path class="cls-77" d="M158.64,0l19.44,80.71,66.27-7.46a228.19,228.19,0,0,1-11,31.76l-55.13-10-25.13,104.3V0Zm-5.57,199.36V0h-5.69L127.94,80.71,61.67,73.25a235.81,235.81,0,0,0,11.26,32.24l54.89-10.43Z" transform="translate(0 1.66)"/><path class="cls-2" d="M153.07,114.26a26.14,26.14,0,1,0-26.2-26.08,26.08,26.08,0,0,0,26.2,26.08Z" transform="translate(0 1.66)"/><path class="cls-78" d="M20.92,289H9.22v17.67H0V249.68H20.92c12.9,0,19.39,6.41,19.39,19.13,0,6.57-1.62,11.52-4.87,14.94S27.33,289,20.92,289Zm-11.7-8H20.84c6.66,0,10-4,10-12.12,0-3.93-.86-6.75-2.48-8.45s-4.1-2.74-7.51-2.74H9.22Zm69.69-3.07v18.95a3.78,3.78,0,0,0,.94,2.74,4.58,4.58,0,0,0,2.73,1.11l-.26,6.91c-4.78,0-8.45-1-11.1-3.07a31.62,31.62,0,0,1-13.41,3.07c-8.19,0-12.38-4.44-12.38-13.23,0-4.19,1.11-7.26,3.42-9.14s5.63-3.07,10.33-3.41l10.76-.94v-3c0-2.22-.51-3.76-1.45-4.61a6.22,6.22,0,0,0-4.36-1.37c-3.5,0-7.94.26-13.32.69l-2.65.17-.34-6.41a72.48,72.48,0,0,1,16.74-2.22c5,0,8.71,1.11,10.93,3.33s3.42,5.64,3.42,10.42ZM60.29,288.19c-3.84.34-5.81,2.39-5.81,6.23s1.71,5.72,5.13,5.72a32.89,32.89,0,0,0,8.79-1.28l1.54-.51v-11.1Zm26-23.14H95.9l8.2,14.43,8.2-14.43H122l-12.38,20.49L122,306.63H112.3l-8.2-14.17-8.2,14.17H86.25L98.38,285.8Zm65,7.77H139.8v18.27c0,3.42.25,5.64.76,6.75s1.71,1.62,3.76,1.62l6.83-.26.43,7.26a43.76,43.76,0,0,1-8.45,1.11c-4.7,0-7.95-1.11-9.74-3.24s-2.56-6.24-2.56-12.21v-19.3h-5.38v-7.77h5.38V253h9v12h11.44Zm37.06,26.3,2.31-.17.17,6.66a86.48,86.48,0,0,1-16.82,2c-6.15,0-10.59-1.71-13.24-5.12s-4-8.71-4-16.22c0-14.69,6-22.12,18-22.12,11.62,0,17.51,6.41,17.51,19l-.6,6.49H165.84c0,3.5.77,6,2.22,7.6s4.19,2.39,8.12,2.39,7.94-.17,12.12-.51Zm-5-16.39c0-4.1-.59-7-1.88-8.63s-3.58-2.47-6.66-2.47-5.38.85-6.74,2.56-2.22,4.52-2.22,8.54Zm17.68,23.9V265.05h9v5a40.48,40.48,0,0,1,14.17-6v9.14a60,60,0,0,0-12.21,3.58l-1.88.77v29Zm26.22-41.58H236l8.8,33.9h2.3l8.8-33.9h9l-15.79,59.51h-8.89l5-17.93H238Zm75.49,12.81v18.95a4.24,4.24,0,0,0,1,2.74,4.38,4.38,0,0,0,2.65,1.11l-.25,6.91q-7.19,0-11-3.07a31.62,31.62,0,0,1-13.41,3.07c-8.28,0-12.38-4.44-12.38-13.23,0-4.19,1.11-7.26,3.33-9.14s5.72-3.07,10.42-3.41l10.67-.94v-3c0-2.22-.51-3.76-1.45-4.61a5.84,5.84,0,0,0-4.27-1.37c-3.59,0-8,.26-13.32.69l-2.65.17-.34-6.41a72.25,72.25,0,0,1,16.65-2.22q7.69,0,11,3.33c2.22,2.14,3.33,5.64,3.33,10.42ZM284,288.19c-3.84.34-5.72,2.39-5.72,6.23s1.71,5.72,5,5.72a33.53,33.53,0,0,0,8.88-1.28l1.45-.51v-11.1Z" transform="translate(0 1.66)"/></g></g></svg>